<svg xmlns="http://www.w3.org/2000/svg" width="1118" height="802.82" viewBox="0 0 1118 802.82"><g transform="translate(0 0)"><ellipse cx="559" cy="67.946" rx="559" ry="67.946" transform="translate(0 666.928)" fill="#229a22" opacity="0.1"/><path d="M997.486,816.769s29.154-37.1,26.8-73.906a71.489,71.489,0,0,1,11.25-43.8,120.231,120.231,0,0,1,13.7-17.2" transform="translate(-41 -48.59)" fill="rgba(0,0,0,0)" stroke="#535461" stroke-miterlimit="10" stroke-width="2"/><path d="M1047.885,658.66c-2.056,5.152,1.312,23.814,1.312,23.814s15.29-11.218,17.345-16.37a10.044,10.044,0,1,0-18.657-7.444Z" transform="translate(-41 -48.59)" fill="#229a22"/><path d="M1021.079,681.046c1.075,5.442,14.044,19.277,14.044,19.277s6.737-17.727,5.663-23.169a10.044,10.044,0,1,0-19.707,3.891Z" transform="translate(-41 -48.59)" fill="#229a22"/><path d="M1002.294,730.082c3.675,4.155,21.855,9.551,21.855,9.551s-3.133-18.7-6.807-22.858a10.044,10.044,0,1,0-15.047,13.307Z" transform="translate(-41 -48.59)" fill="#229a22"/><path d="M996.437,770.385c2.92,4.716,19.926,13.107,19.926,13.107s.073-18.964-2.847-23.68a10.044,10.044,0,1,0-17.08,10.573Z" transform="translate(-41 -48.59)" fill="#229a22"/><path d="M1054.312,709.136c-5.128,2.115-23.828-1.035-23.828-1.035s11.04-15.419,16.167-17.534a10.044,10.044,0,1,1,7.661,18.569Z" transform="translate(-41 -48.59)" fill="#229a22"/><path d="M1046.863,756.183c-5.526.484-22.427-8.117-22.427-8.117s15.148-11.409,20.673-11.894a10.044,10.044,0,1,1,1.753,20.011Z" transform="translate(-41 -48.59)" fill="#229a22"/><path d="M1033.349,800.917c-5.365,1.411-23.476-4.21-23.476-4.21s13-13.8,18.366-15.216a10.044,10.044,0,1,1,5.11,19.427Z" transform="translate(-41 -48.59)" fill="#229a22"/><path d="M1047.885,658.66c-2.056,5.152,1.312,23.814,1.312,23.814s15.29-11.218,17.345-16.37a10.044,10.044,0,1,0-18.657-7.444Z" transform="translate(-41 -48.59)" fill="#229a22" opacity="0.25"/><path d="M1021.079,681.046c1.075,5.442,14.044,19.277,14.044,19.277s6.737-17.727,5.663-23.169a10.044,10.044,0,1,0-19.707,3.891Z" transform="translate(-41 -48.59)" fill="#229a22" opacity="0.25"/><path d="M1002.294,730.082c3.675,4.155,21.855,9.551,21.855,9.551s-3.133-18.7-6.807-22.858a10.044,10.044,0,1,0-15.047,13.307Z" transform="translate(-41 -48.59)" fill="#229a22" opacity="0.25"/><path d="M996.437,770.385c2.92,4.716,19.926,13.107,19.926,13.107s.073-18.964-2.847-23.68a10.044,10.044,0,1,0-17.08,10.573Z" transform="translate(-41 -48.59)" fill="#229a22" opacity="0.25"/><path d="M1054.312,709.136c-5.128,2.115-23.828-1.035-23.828-1.035s11.04-15.419,16.167-17.534a10.044,10.044,0,1,1,7.661,18.569Z" transform="translate(-41 -48.59)" fill="#229a22" opacity="0.25"/><path d="M1046.863,756.183c-5.526.484-22.427-8.117-22.427-8.117s15.148-11.409,20.673-11.894a10.044,10.044,0,1,1,1.753,20.011Z" transform="translate(-41 -48.59)" fill="#229a22" opacity="0.25"/><path d="M1033.349,800.917c-5.365,1.411-23.476-4.21-23.476-4.21s13-13.8,18.366-15.216a10.044,10.044,0,1,1,5.11,19.427Z" transform="translate(-41 -48.59)" fill="#229a22" opacity="0.25"/><path d="M997.733,815.224s41.687-22.1,54.447-56.708a71.49,71.49,0,0,1,28.034-35.483,120.235,120.235,0,0,1,19.493-10.173" transform="translate(-41 -48.59)" fill="rgba(0,0,0,0)" stroke="#535461" stroke-miterlimit="10" stroke-width="2"/><path d="M1107.878,691.1c-3.967,3.877-8.451,22.3-8.451,22.3s18.524-4.06,22.491-7.937a10.044,10.044,0,1,0-14.04-14.366Z" transform="translate(-41 -48.59)" fill="#229a22"/><path d="M1074.3,700.7c-1.223,5.411,5.028,23.315,5.028,23.315s13.343-13.476,14.565-18.886A10.044,10.044,0,1,0,1074.3,700.7Z" transform="translate(-41 -48.59)" fill="#229a22"/><path d="M1037.256,737.922c1.676,5.288,16.11,17.588,16.11,17.588s4.715-18.368,3.039-23.656a10.044,10.044,0,1,0-19.149,6.068Z" transform="translate(-41 -48.59)" fill="#229a22"/><path d="M1015.569,772.394c.758,5.495,12.906,20.057,12.906,20.057s7.751-17.307,6.993-22.8a10.044,10.044,0,0,0-19.9,2.745Z" transform="translate(-41 -48.59)" fill="#229a22"/><path d="M1093.3,739.852c-5.545-.144-21.365-10.6-21.365-10.6s16.341-9.623,21.886-9.479a10.044,10.044,0,1,1-.521,20.081Z" transform="translate(-41 -48.59)" fill="#229a22"/><path d="M1067.425,779.845c-5.248-1.8-17.214-16.509-17.214-16.509s18.472-4.293,23.719-2.5a10.044,10.044,0,0,1-6.506,19Z" transform="translate(-41 -48.59)" fill="#229a22"/><path d="M1036.943,815.265c-5.476-.884-19.756-13.362-19.756-13.362s17.48-7.352,22.957-6.469a10.044,10.044,0,1,1-3.2,19.831Z" transform="translate(-41 -48.59)" fill="#229a22"/><path d="M678.139,143.668c-55.237-1.918-107.847-19.75-158.083-39.26s-100-41.125-153.911-51.463c-34.677-6.649-74.332-7.59-102.273,11-26.887,17.891-35.575,48.775-40.246,77.431-3.514,21.56-5.58,44.251,4.049,64.435,6.685,14.013,18.555,25.792,26.764,39.214,28.562,46.7,8.374,104.3-22.579,149.9-14.52,21.391-31.361,41.8-42.565,64.57s-16.387,48.864-6.585,72.093c9.716,23.024,32.871,40.318,57.953,52.482,50.942,24.7,110.972,31.775,169.51,35.78,129.579,8.865,259.85,5.027,389.773,1.183,48.081-1.423,96.375-2.864,143.675-10.3,26.267-4.129,53.385-10.682,72.455-26.5,24.208-20.083,30.209-54.089,13.987-79.271-27.21-42.239-102.441-52.731-121.459-98.061-10.468-24.952.282-52.745,15.5-75.886,32.635-49.642,87.337-93.193,90.218-149.935,1.979-38.971-24.317-78-64.977-96.438-42.619-19.328-101.717-16.9-133.159,15.1C783.8,132.685,726.91,145.361,678.139,143.668Z" transform="translate(-41 -48.59)" fill="#229a22" opacity="0.1"/><ellipse cx="37.557" cy="39.865" rx="37.557" ry="39.865" transform="translate(505.006 624.668)" fill="#229a22"/><ellipse cx="37.557" cy="39.865" rx="37.557" ry="39.865" transform="translate(505.006 624.668)" fill="#229a22" opacity="0.1"/><ellipse cx="37.557" cy="38.978" rx="37.557" ry="38.978" transform="translate(511.488 626.444)" fill="#229a22"/><path d="M605.257,749.334l-3.907-2.175s-1.827,7.625-1.23,13.059a2.707,2.707,0,0,0,2.034,2.338c8.987,2.232,51.82,11.741,81.275-1.652a2.7,2.7,0,0,0,1.565-2.172c.361-3.34-.918-10.231-1.428-11.573C682.468,744.269,605.257,749.334,605.257,749.334Z" transform="translate(-41 -48.59)" fill="#229a22"/><path d="M605.257,749.334l-3.907-2.175s-1.827,7.625-1.23,13.059a2.707,2.707,0,0,0,2.034,2.338c8.987,2.232,51.82,11.741,81.275-1.652a2.7,2.7,0,0,0,1.565-2.172c.361-3.34-.918-10.231-1.428-11.573C682.468,744.269,605.257,749.334,605.257,749.334Z" transform="translate(-41 -48.59)" fill="#229a22" opacity="0.1"/><ellipse cx="41.108" cy="9.266" rx="41.108" ry="9.266" transform="translate(560.35 689.302)" fill="#229a22"/><path d="M620.962,735.662l-3.907-2.175s-1.827,7.625-1.23,13.059a2.707,2.707,0,0,0,2.034,2.339c8.987,2.232,51.82,11.74,81.275-1.652a2.7,2.7,0,0,0,1.565-2.172c.361-3.34-.918-10.231-1.428-11.573C698.174,730.6,620.962,735.662,620.962,735.662Z" transform="translate(-41 -48.59)" fill="#229a22"/><path d="M620.962,735.662l-3.907-2.175s-1.827,7.625-1.23,13.059a2.707,2.707,0,0,0,2.034,2.339c8.987,2.232,51.82,11.74,81.275-1.652a2.7,2.7,0,0,0,1.565-2.172c.361-3.34-.918-10.231-1.428-11.573C698.174,730.6,620.962,735.662,620.962,735.662Z" transform="translate(-41 -48.59)" fill="#229a22" opacity="0.1"/><ellipse cx="41.108" cy="9.266" rx="41.108" ry="9.266" transform="translate(576.056 675.63)" fill="#229a22"/><path d="M634.847,717.694l-3.907-2.175s-1.827,7.625-1.23,13.059a2.707,2.707,0,0,0,2.034,2.338c8.987,2.232,51.821,11.74,81.275-1.652a2.7,2.7,0,0,0,1.565-2.172c.361-3.34-.918-10.231-1.428-11.573C712.058,712.629,634.847,717.694,634.847,717.694Z" transform="translate(-41 -48.59)" fill="#229a22"/><path d="M634.847,717.694l-3.907-2.175s-1.827,7.625-1.23,13.059a2.707,2.707,0,0,0,2.034,2.338c8.987,2.232,51.821,11.74,81.275-1.652a2.7,2.7,0,0,0,1.565-2.172c.361-3.34-.918-10.231-1.428-11.573C712.058,712.629,634.847,717.694,634.847,717.694Z" transform="translate(-41 -48.59)" fill="#229a22" opacity="0.1"/><ellipse cx="41.108" cy="9.266" rx="41.108" ry="9.266" transform="translate(589.94 657.662)" fill="#229a22"/><path d="M619.471,698.988l-3.907-2.175s-1.827,7.625-1.23,13.059a2.707,2.707,0,0,0,2.034,2.339c8.987,2.232,51.82,11.74,81.275-1.652a2.7,2.7,0,0,0,1.566-2.172c.361-3.34-.918-10.231-1.428-11.573C696.682,693.923,619.471,698.988,619.471,698.988Z" transform="translate(-41 -48.59)" fill="#229a22"/><path d="M619.471,698.988l-3.907-2.175s-1.827,7.625-1.23,13.059a2.707,2.707,0,0,0,2.034,2.339c8.987,2.232,51.82,11.74,81.275-1.652a2.7,2.7,0,0,0,1.566-2.172c.361-3.34-.918-10.231-1.428-11.573C696.682,693.923,619.471,698.988,619.471,698.988Z" transform="translate(-41 -48.59)" fill="#229a22" opacity="0.1"/><ellipse cx="41.108" cy="9.266" rx="41.108" ry="9.266" transform="translate(574.564 638.956)" fill="#229a22"/><path d="M654.062,683.977l-3.907-2.175s-1.827,7.625-1.23,13.059a2.707,2.707,0,0,0,2.034,2.338c8.987,2.232,51.82,11.74,81.275-1.652a2.7,2.7,0,0,0,1.566-2.172c.361-3.34-.918-10.231-1.428-11.573C731.273,678.912,654.062,683.977,654.062,683.977Z" transform="translate(-41 -48.59)" fill="#229a22"/><path d="M654.062,683.977l-3.907-2.175s-1.827,7.625-1.23,13.059a2.707,2.707,0,0,0,2.034,2.338c8.987,2.232,51.82,11.74,81.275-1.652a2.7,2.7,0,0,0,1.566-2.172c.361-3.34-.918-10.231-1.428-11.573C731.273,678.912,654.062,683.977,654.062,683.977Z" transform="translate(-41 -48.59)" fill="#229a22" opacity="0.1"/><ellipse cx="41.108" cy="9.266" rx="41.108" ry="9.266" transform="translate(609.155 623.945)" fill="#229a22"/><path d="M630.69,673.887l-3.907-2.175s-1.827,7.625-1.23,13.059a2.707,2.707,0,0,0,2.034,2.338c8.987,2.232,51.82,11.74,81.275-1.652a2.7,2.7,0,0,0,1.565-2.172c.361-3.34-.918-10.231-1.428-11.573C707.9,668.823,630.69,673.887,630.69,673.887Z" transform="translate(-41 -48.59)" fill="#229a22"/><path d="M630.69,673.887l-3.907-2.175s-1.827,7.625-1.23,13.059a2.707,2.707,0,0,0,2.034,2.338c8.987,2.232,51.82,11.74,81.275-1.652a2.7,2.7,0,0,0,1.565-2.172c.361-3.34-.918-10.231-1.428-11.573C707.9,668.823,630.69,673.887,630.69,673.887Z" transform="translate(-41 -48.59)" fill="#229a22" opacity="0.1"/><ellipse cx="41.108" cy="9.266" rx="41.108" ry="9.266" transform="translate(585.784 613.856)" fill="#229a22"/><path d="M646.294,654.409l-3.907-2.175s-1.827,7.625-1.23,13.059a2.707,2.707,0,0,0,2.034,2.338c8.987,2.232,51.82,11.741,81.275-1.652a2.7,2.7,0,0,0,1.565-2.172c.361-3.34-.918-10.231-1.428-11.573C723.505,649.345,646.294,654.409,646.294,654.409Z" transform="translate(-41 -48.59)" fill="#229a22"/><path d="M646.294,654.409l-3.907-2.175s-1.827,7.625-1.23,13.059a2.707,2.707,0,0,0,2.034,2.338c8.987,2.232,51.82,11.741,81.275-1.652a2.7,2.7,0,0,0,1.565-2.172c.361-3.34-.918-10.231-1.428-11.573C723.505,649.345,646.294,654.409,646.294,654.409Z" transform="translate(-41 -48.59)" fill="#229a22" opacity="0.1"/><ellipse cx="41.108" cy="9.266" rx="41.108" ry="9.266" transform="translate(601.387 594.377)" fill="#229a22"/><path d="M653.991,631.289l-3.907-2.175s-1.827,7.625-1.23,13.059a2.707,2.707,0,0,0,2.034,2.338c8.987,2.232,51.82,11.74,81.275-1.652a2.7,2.7,0,0,0,1.566-2.172c.361-3.34-.918-10.231-1.428-11.573C731.2,626.225,653.991,631.289,653.991,631.289Z" transform="translate(-41 -48.59)" fill="#229a22"/><path d="M653.991,631.289l-3.907-2.175s-1.827,7.625-1.23,13.059a2.707,2.707,0,0,0,2.034,2.338c8.987,2.232,51.82,11.74,81.275-1.652a2.7,2.7,0,0,0,1.566-2.172c.361-3.34-.918-10.231-1.428-11.573C731.2,626.225,653.991,631.289,653.991,631.289Z" transform="translate(-41 -48.59)" fill="#229a22" opacity="0.1"/><ellipse cx="41.108" cy="9.266" rx="41.108" ry="9.266" transform="translate(609.084 571.257)" fill="#229a22"/><path d="M723.386,754.7l-3.907-2.175s-1.827,7.625-1.23,13.059a2.707,2.707,0,0,0,2.034,2.338c8.987,2.232,51.82,11.74,81.275-1.652a2.7,2.7,0,0,0,1.565-2.172c.361-3.34-.918-10.231-1.428-11.573C800.6,749.631,723.386,754.7,723.386,754.7Z" transform="translate(-41 -48.59)" fill="#229a22"/><path d="M723.386,754.7l-3.907-2.175s-1.827,7.625-1.23,13.059a2.707,2.707,0,0,0,2.034,2.338c8.987,2.232,51.82,11.74,81.275-1.652a2.7,2.7,0,0,0,1.565-2.172c.361-3.34-.918-10.231-1.428-11.573C800.6,749.631,723.386,754.7,723.386,754.7Z" transform="translate(-41 -48.59)" fill="#229a22" opacity="0.1"/><ellipse cx="41.108" cy="9.266" rx="41.108" ry="9.266" transform="translate(678.479 694.664)" fill="#229a22"/><path d="M737.27,736.727l-3.907-2.175s-1.827,7.625-1.23,13.059a2.707,2.707,0,0,0,2.034,2.339c8.987,2.232,51.82,11.74,81.275-1.652a2.7,2.7,0,0,0,1.565-2.172c.361-3.34-.918-10.231-1.428-11.573C814.482,731.663,737.27,736.727,737.27,736.727Z" transform="translate(-41 -48.59)" fill="#229a22"/><path d="M737.27,736.727l-3.907-2.175s-1.827,7.625-1.23,13.059a2.707,2.707,0,0,0,2.034,2.339c8.987,2.232,51.82,11.74,81.275-1.652a2.7,2.7,0,0,0,1.565-2.172c.361-3.34-.918-10.231-1.428-11.573C814.482,731.663,737.27,736.727,737.27,736.727Z" transform="translate(-41 -48.59)" fill="#229a22" opacity="0.1"/><ellipse cx="41.108" cy="9.266" rx="41.108" ry="9.266" transform="translate(692.364 676.695)" fill="#229a22"/><path d="M721.894,718.022l-3.907-2.175s-1.827,7.625-1.23,13.059a2.707,2.707,0,0,0,2.034,2.338c8.987,2.232,51.82,11.74,81.275-1.652a2.7,2.7,0,0,0,1.566-2.172c.361-3.34-.918-10.231-1.428-11.573C799.1,712.957,721.894,718.022,721.894,718.022Z" transform="translate(-41 -48.59)" fill="#229a22"/><path d="M721.894,718.022l-3.907-2.175s-1.827,7.625-1.23,13.059a2.707,2.707,0,0,0,2.034,2.338c8.987,2.232,51.82,11.74,81.275-1.652a2.7,2.7,0,0,0,1.566-2.172c.361-3.34-.918-10.231-1.428-11.573C799.1,712.957,721.894,718.022,721.894,718.022Z" transform="translate(-41 -48.59)" fill="#229a22" opacity="0.1"/><ellipse cx="41.108" cy="9.266" rx="41.108" ry="9.266" transform="translate(676.987 657.99)" fill="#229a22"/><path d="M756.485,703.011l-3.907-2.175s-1.827,7.625-1.23,13.059a2.707,2.707,0,0,0,2.034,2.339c8.987,2.232,51.82,11.74,81.275-1.652a2.7,2.7,0,0,0,1.566-2.172c.361-3.34-.918-10.231-1.428-11.573C833.7,697.946,756.485,703.011,756.485,703.011Z" transform="translate(-41 -48.59)" fill="#229a22"/><path d="M756.485,703.011l-3.907-2.175s-1.827,7.625-1.23,13.059a2.707,2.707,0,0,0,2.034,2.339c8.987,2.232,51.82,11.74,81.275-1.652a2.7,2.7,0,0,0,1.566-2.172c.361-3.34-.918-10.231-1.428-11.573C833.7,697.946,756.485,703.011,756.485,703.011Z" transform="translate(-41 -48.59)" fill="#229a22" opacity="0.1"/><ellipse cx="41.108" cy="9.266" rx="41.108" ry="9.266" transform="translate(711.578 642.979)" fill="#229a22"/><path d="M733.114,692.921l-3.907-2.175s-1.827,7.625-1.23,13.059a2.707,2.707,0,0,0,2.034,2.339c8.987,2.232,51.82,11.74,81.275-1.652a2.7,2.7,0,0,0,1.566-2.172c.361-3.34-.918-10.231-1.428-11.573C810.325,687.857,733.114,692.921,733.114,692.921Z" transform="translate(-41 -48.59)" fill="#229a22"/><path d="M733.114,692.921l-3.907-2.175s-1.827,7.625-1.23,13.059a2.707,2.707,0,0,0,2.034,2.339c8.987,2.232,51.82,11.74,81.275-1.652a2.7,2.7,0,0,0,1.566-2.172c.361-3.34-.918-10.231-1.428-11.573C810.325,687.857,733.114,692.921,733.114,692.921Z" transform="translate(-41 -48.59)" fill="#229a22" opacity="0.1"/><ellipse cx="41.108" cy="9.266" rx="41.108" ry="9.266" transform="translate(688.207 632.889)" fill="#229a22"/><path d="M748.717,673.443l-3.907-2.175s-1.827,7.625-1.23,13.059a2.707,2.707,0,0,0,2.034,2.338c8.987,2.232,51.82,11.74,81.275-1.652a2.7,2.7,0,0,0,1.565-2.172c.361-3.34-.918-10.231-1.428-11.573C825.929,668.378,748.717,673.443,748.717,673.443Z" transform="translate(-41 -48.59)" fill="#229a22"/><path d="M748.717,673.443l-3.907-2.175s-1.827,7.625-1.23,13.059a2.707,2.707,0,0,0,2.034,2.338c8.987,2.232,51.82,11.74,81.275-1.652a2.7,2.7,0,0,0,1.565-2.172c.361-3.34-.918-10.231-1.428-11.573C825.929,668.378,748.717,673.443,748.717,673.443Z" transform="translate(-41 -48.59)" fill="#229a22" opacity="0.1"/><ellipse cx="41.108" cy="9.266" rx="41.108" ry="9.266" transform="translate(703.811 613.411)" fill="#229a22"/><path d="M756.414,650.323l-3.907-2.175s-1.827,7.625-1.23,13.059a2.707,2.707,0,0,0,2.034,2.338c8.987,2.232,51.82,11.74,81.275-1.652a2.7,2.7,0,0,0,1.565-2.172c.361-3.34-.918-10.231-1.428-11.573C833.626,645.258,756.414,650.323,756.414,650.323Z" transform="translate(-41 -48.59)" fill="#229a22"/><path d="M756.414,650.323l-3.907-2.175s-1.827,7.625-1.23,13.059a2.707,2.707,0,0,0,2.034,2.338c8.987,2.232,51.82,11.74,81.275-1.652a2.7,2.7,0,0,0,1.565-2.172c.361-3.34-.918-10.231-1.428-11.573C833.626,645.258,756.414,650.323,756.414,650.323Z" transform="translate(-41 -48.59)" fill="#229a22" opacity="0.1"/><ellipse cx="41.108" cy="9.266" rx="41.108" ry="9.266" transform="translate(711.508 590.291)" fill="#229a22"/><path d="M1004.191,809.234c-5.722-.2-5.927-2.42-13.284-6.251-4.153-2.162-10.459-8.442-15.16-13.5q-.565-.607-1.094-1.186c1.243-.027,1.948-.04,1.948-.04s-1.839-16.133-.2-19.964.409-26.619.409-26.619,1.022-17.343-.818-21.376.613-29.846.613-29.846,1.635-15.326,2.044-46.584S960.665,611.6,960.665,611.6s-2.452-.19-6.176-.544l-1.116-.107c2.411-5.048,3.817-8.826,3.817-8.826s-3.065-29.241-3.883-34.282-5.722-25.813-5.722-25.813-3.474-8.873-5.518-15.125S933.89,513.4,933.89,513.4s-11.036-21.779-14.1-25.006c-1.422-1.5-3.417-3.384-5.146-4.977-.312-.287-.61-.56-.9-.824a36.51,36.51,0,0,0,.732-6.9s-11.444-11.293-12.262-14.116-11.649-13.31-11.649-13.31-6.131-11.293-13.079-11.495a56.676,56.676,0,0,0-9.842.3c1.427-5.282,3.115-10.815,4.63-15.564.169-.529.334-1.045.5-1.553a35,35,0,0,0,12.554-15.185c.145-.328.276-.658.407-.989.074,0,.147.014.22.013a5.493,5.493,0,0,0,.86-.078c2.287-.393,4.224-2.976,3.169-5.015a.747.747,0,0,0,.666.366c.762-.025,1.693-1.128,1.871-2.1.031-.168.048-.339.074-.508.032-.211.067-.421.092-.632s.038-.4.055-.6.034-.411.044-.618.016-.386.019-.579v-.666c0-.178-.005-.355-.014-.533-.013-.27-.035-.54-.06-.809-.01-.111-.012-.222-.025-.332v.016a18.114,18.114,0,0,0-.658-3.252c-1.129-3.748-3.5-7.466-2.586-11.271.01-.041.028-.078.039-.119v.007c.761-2.953,3.316-5.1,4.88-7.737.149-.252.28-.511.409-.772.024-.048.052-.093.075-.141.094-.2.174-.4.256-.6.053-.129.112-.256.161-.386.066-.176.12-.355.178-.533.052-.162.108-.324.154-.488s.079-.318.117-.478c.046-.192.091-.385.128-.579.026-.139.047-.28.069-.42.034-.22.066-.441.089-.663.013-.12.022-.24.031-.361.02-.248.033-.5.04-.744v-.3q0-.408-.021-.815c0-.082-.009-.163-.015-.245-.02-.29-.051-.578-.089-.867-.005-.042-.007-.084-.013-.125v.011a14.53,14.53,0,0,0-2.927-6.951,17.911,17.911,0,0,0-14.71-6.362,24.645,24.645,0,0,1-4.625.085c-2.566-.376-4.736-2.006-6.78-3.581L849.79,330.833a21.127,21.127,0,0,0-6.47-3.847c-2.419-.74-5.319-.485-7.11,1.282-3.2,3.163-1.168,8.606-2.454,12.894-1.115,3.715-4.7,6.232-8.416,7.487s-7.688,1.53-11.5,2.438a6.349,6.349,0,0,0-3.079,1.415,5.955,5.955,0,0,0-1.338,4.287,23.119,23.119,0,0,0,2.657,10.9c.722,1.37,1.6,2.753,2.364,4.156.063.116.125.232.187.348.086.161.172.322.254.484q.2.393.38.789c.052.114.1.228.148.342q.12.28.229.561c.046.119.09.239.132.359.077.221.146.442.209.664a7.381,7.381,0,0,1,.111,4.021c-.589,2.168-2.281,3.838-3.773,5.531a10.76,10.76,0,0,0-2.522,4.674l-.007.039a3.756,3.756,0,0,0-.046,1.233c.007.051.013.1.024.152a2.158,2.158,0,0,0,.076.27,1.858,1.858,0,0,0,.08.188,1.749,1.749,0,0,0,.106.209,1.6,1.6,0,0,0,.26.307,1.688,1.688,0,0,0,.143.107,1.829,1.829,0,0,0,.437.238,2.422,2.422,0,0,0,.419.114c.04.007.074.02.116.026a3.839,3.839,0,0,0,.658.028c.063,0,.132-.01.2-.015a6.235,6.235,0,0,0,.628-.079c.076-.013.151-.025.23-.042.3-.062.617-.139.964-.247a21.636,21.636,0,0,0,3.339-1.32c0,.123-.009.244-.009.367,0,.212,0,.434.02.645a33.987,33.987,0,0,0,2.208,11.567A34.935,34.935,0,0,0,830.3,418.135q-.089.523-.2,1.049c-.985,4.836-3.045,9.688-4.316,9.313a17.333,17.333,0,0,0-3.789-.415c-.386-.011-.76-.017-1.115-.019h0a15.106,15.106,0,0,0-3.474,0,3.766,3.766,0,0,1-1.52-.21,20.729,20.729,0,0,0-10.21-.573c-7.067,1.448-17.816,4.1-20.763,7.268-4.5,4.84-11.036,9.478-18.393,29.644,0,0-3.679,12.3-6.54,13.915a19.085,19.085,0,0,1,1.941-.873,5.18,5.18,0,0,1-1.533,1.679,22.564,22.564,0,0,1,3.219-1.342c-2.233,13.139,1.073,50.721,1.073,50.721s-2.657,6.481.818,10.312c2.065,2.277,3.187,5.828,3.761,8.341l-.5.782h0c-1.839,2.851-4.3,6.57-5.914,8.619-2.861,3.63-2.044,15.125-2.044,15.125s-.613,5.445-2.657,7.461-1.635,9.478-1.635,9.478L751.2,607.971s-4.9,4.437-4.9,6.453-3.883,7.663-3.883,7.663-5.927,9.68,0,8.268a18.6,18.6,0,0,0,5.984-3.009v.145q-.013.532-.022,1.081c-.168,10.543.981,25.377,8.755,25.377,12.057,0,43.121,14.318,43.121,14.318,6.335,4.84,14.919,3.227,14.919,3.227s-15.123,15.125-14.714,21.376-8.583,16.536-8.583,16.536l-27.794,54.247a41.61,41.61,0,0,0,1.992,11.119c-.132.115-.269.225-.4.344-10.68,9.756-11.608,29.071-11.608,29.071l-2.452,9.881L788.812,830.4s48.23,1.008,56.609-1.21,6.54-11.495-4.5-13.31-13.692-6.655-17.371-8.873c-2.481-1.5-11.293-11.168-16.762-17.3l-.241-.271,1.267-7.033c2.452-1.21,6.131-13.31,6.131-13.31s0-4.84,2.452-6.251,7.562-15.931,7.562-15.931S835,728.562,834.382,726.142s7.97-14.721,7.97-14.721,14.51-14.116,13.9-16.637S867.9,679.357,867.9,679.357a40.923,40.923,0,0,0,10.852-12.495c1.1-.177,2.289-.367,3.54-.577,16.047-2.63,42.712-7.385,45.692-8.708,4.087-1.815,3.27,6.251,1.635,13.108s-2.861,39.727-1.022,43.962,1.022,11.091,1.022,11.091l-2.452,36.9L928.8,770.5s-5.518,4.437-3.27,7.058.2,13.915.2,13.915c.193-.071.422-.141.679-.21-.2.443-.384.9-.552,1.376-3.168,9.03-1.353,23.84-1.353,23.84v11.7S981.1,829.2,993.564,829.2s29.633-6.05,30.655-10.89S1009.913,809.436,1004.191,809.234ZM843.185,599.3l-3.709.312a30.788,30.788,0,0,1,3.709-.312Zm22.608-154.788c.519-2.333,1.149-4.842,1.844-7.416Zm6.993,160.444a15,15,0,0,1-11.011.012l-.025-.012s.2-14.116,1.839-19.964,3.883-16.536,3.883-16.536,1.839-14.721,3.678-21.376,8.992-43.76,12.671-46.18,5.722,1.815,5.722,1.815.55-.011,1.471-.113q.259.58.585,1.234c4.361,8.813,17.154,26.91,17.154,26.91a29.468,29.468,0,0,1,9.4,9.276c3.474,5.848,4.5,19.561,4.5,19.561s7.766,30.451,11.444,34.686c1.839,2.117,1.022,3.38-.253,4.11a18.106,18.106,0,0,0-6.45,5.957c-.523.831-1.078,1.743-1.64,2.715-1.406-.326-2.665-.664-3.714-1.017-10.014-3.364-43.734-3.5-49.251-1.077Z" transform="translate(-41 -48.59)" fill="#229a22"/><path d="M923.148,816.612v11.6s55.393,1,67.591,1,29-6,30-10.8-14-8.8-19.6-9-5.8-2.4-13-6.2c-4.063-2.144-10.235-8.371-14.834-13.382-3.547-3.867-6.163-7.015-6.163-7.015s-29.8-.6-38.4,4.2c-1.98,1.108-3.348,3.276-4.275,5.955C921.373,801.926,923.148,816.612,923.148,816.612Z" transform="translate(-41 -48.59)" fill="#229a22"/><path d="M924.472,792.971c6.247-2.172,42.822-3.016,48.833-3.14-3.547-3.867-6.163-7.015-6.163-7.015s-29.8-.6-38.4,4.2C926.768,788.124,925.4,790.292,924.472,792.971Z" transform="translate(-41 -48.59)" fill="#229a22" opacity="0.1"/><path d="M763.77,608.04s1.156.7,3.232,1.952c.376.224.78.472,1.212.732,1.316.8,2.9,1.744,4.7,2.832,25.133,15.146,93.691,56.2,97.443,55.876.984-.084,3.939-.528,8.019-1.192,1.08-.176,2.24-.364,3.464-.572,15.7-2.608,41.794-7.323,44.71-8.635,4-1.8,3.2,6.2,1.6,13s-2.8,39.4-1,43.594,1,11,1,11l-2.4,36.6,1.6,7.8s-5.4,4.4-3.2,7,.2,13.8.2,13.8c6.4-2.4,49.793-3.2,49.793-3.2s-1.8-16-.2-19.8.4-26.4.4-26.4,1-17.2-.8-21.2.6-29.6.6-29.6,1.6-15.2,2-46.194-17.6-32-17.6-32-2.4-.188-6.043-.54c-7.127-.684-19.005-1.992-26.94-3.716a44.913,44.913,0,0,1-4.811-1.276c-9.8-3.336-42.794-3.468-48.194-1.068a14.5,14.5,0,0,1-10.775.012l-.024-.012-4.2-6.8-40.111,3.42-4.251.364-39.487,3.368-2.716.232Z" transform="translate(-41 -48.59)" fill="#229a22"/><path d="M924.548,638.716C936.2,644.4,947.317,624.262,952.5,612.9c-7.127-.684-19.005-1.992-26.94-3.716C920.341,617.943,913.378,633.273,924.548,638.716Z" transform="translate(-41 -48.59)" fill="#229a22" opacity="0.1"/><path d="M889.553,502.654a12.215,12.215,0,0,0,1.412,3.911c4.267,8.739,16.786,26.684,16.786,26.684a28.988,28.988,0,0,1,9.2,9.2c3.4,5.8,4.4,19.4,4.4,19.4s7.6,30.2,11.2,34.4c1.8,2.1,1,3.352-.248,4.075a17.814,17.814,0,0,0-6.311,5.907c-5.243,8.431-13.614,25.153-1.84,30.892,16,7.8,31-33.076,31-33.076s-3-29-3.8-34-5.6-25.6-5.6-25.6-3.4-8.8-5.4-15-8-13.4-8-13.4-10.8-21.6-13.8-24.8c-1.392-1.484-3.344-3.356-5.035-4.935-1.956-1.828-3.563-3.264-3.563-3.264S889.353,497.855,889.553,502.654Z" transform="translate(-41 -48.59)" fill="#229a22"/><path d="M753.971,814.212l36.4,16.2s47.194,1,55.393-1.2,6.4-11.4-4.4-13.2-13.4-6.6-17-8.8c-2.428-1.484-11.051-11.075-16.4-17.154-2.576-2.928-4.4-5.043-4.4-5.043s-7-18.6-26.4-14.4a19.878,19.878,0,0,0-9.439,4.967c-10.451,9.675-11.358,28.828-11.358,28.828Z" transform="translate(-41 -48.59)" fill="#229a22"/><path d="M768.213,610.724c1.316.8,2.9,1.744,4.7,2.832,25.133,15.146,93.691,56.2,97.443,55.876.984-.084,3.939-.528,8.019-1.192,1.08-.176,2.24-.364,3.464-.572.048-.076.092-.152.136-.228a45.971,45.971,0,0,0,4.579-11.206c4.2-16-16.6-28.2-16.6-28.2l-4.4-3.42c-5-8.419-40.995-16.378-40.995-16.378l-4.639-3.116-2.476-1.664-.652-.436-5.631-3.784-28.2,2-8.375,5.383-.884.568-3.108,2Z" transform="translate(-41 -48.59)" fill="#229a22" opacity="0.1"/><path d="M767.729,775.586c7.655,26.476,39.635,17.83,39.635,17.83l.6-3.356c-2.576-2.928-4.4-5.043-4.4-5.043s-7-18.6-26.4-14.4A19.876,19.876,0,0,0,767.729,775.586Z" transform="translate(-41 -48.59)" fill="#229a22" opacity="0.1"/><path d="M759.371,655.434c11.8,0,42.194,14.2,42.194,14.2,6.2,4.8,14.6,3.2,14.6,3.2s-14.8,15-14.4,21.2-8.4,16.4-8.4,16.4l-27.2,53.793c2,38.2,41.194,27.6,41.194,27.6l1.6-9c2.4-1.2,6-13.2,6-13.2s0-4.8,2.4-6.2,7.4-15.8,7.4-15.8,10.8-18.2,10.2-20.6,7.8-14.6,7.8-14.6,14.2-14,13.6-16.5,11.4-15.3,11.4-15.3a40.382,40.382,0,0,0,10.619-12.39,45.965,45.965,0,0,0,4.579-11.206c3.384-12.882-9.447-23.3-14.57-26.868-1.24-.864-2.028-1.328-2.028-1.328l-4.4-3.42c-2.272-3.831-10.959-7.563-19.753-10.495-6.343-2.116-12.746-3.815-16.838-4.835-2.708-.672-4.4-1.048-4.4-1.048l-4.639-3.116-1.632-1.1-1.5-1-5.631-3.783-12.546.888-15.65,1.112-8.375,5.383L767,609.992l-15.63,10.047s-.412,3.847-.544,9.011c-.008.4-.016.8-.024,1.22C750.64,640.724,751.764,655.434,759.371,655.434Z" transform="translate(-41 -48.59)" fill="#229a22"/><path d="M819.562,431.464l4.2,15s7.4,25.8,8.2,27.6,20.2,20,21,20.4,11.362,6.4,11.362,6.4.836-33,.036-42.594a27.4,27.4,0,0,1,.52-6.287c1.276-7.523,4.5-18.553,7.179-27.048,2.24-7.119,4.1-12.458,4.1-12.458s-46.794-2-45.194,2.6c.6,1.74.408,4.647-.176,7.563-.964,4.8-2.98,9.607-4.223,9.235a16.743,16.743,0,0,0-3.708-.412C821.126,431.4,819.562,431.464,819.562,431.464Z" transform="translate(-41 -48.59)" fill="#229a22"/><path d="M830.785,422.629a34.609,34.609,0,0,0,41.27,2.3c2.24-7.119,4.1-12.458,4.1-12.458s-46.794-2-45.194,2.6C831.565,416.806,831.369,419.714,830.785,422.629Z" transform="translate(-41 -48.59)" fill="#229a22" opacity="0.1"/><path d="M887.557,394.877a34.459,34.459,0,0,1-1.73,10.8,28.228,28.228,0,0,1-1,2.65,34.6,34.6,0,0,1-64.28-1.34,34.1,34.1,0,0,1-2.16-11.47c-.02-.21-.02-.43-.02-.64a34.6,34.6,0,1,1,69.2,0Z" transform="translate(-41 -48.59)" fill="#229a22"/><path d="M819.562,431.464l4.2,15s7.4,25.8,8.2,27.6,20.2,20,21,20.4,11.362,6.4,11.362,6.4.836-33,.036-42.594a27.4,27.4,0,0,1,.52-6.287l-2.72,11.086.2,22.2,1.6,1.2-3.6,5.4v-4s-12.8-12.4-14.8-17.6-9.2-14.614-9.2-14.614-8.2-13.782-8.4-16.182c-.156-1.872-3.6-6.2-5.107-8.011C821.126,431.4,819.562,431.464,819.562,431.464Z" transform="translate(-41 -48.59)" fill="#229a22" opacity="0.1"/><path d="M889.553,502.654a12.215,12.215,0,0,0,1.412,3.911c4.371-.448,19.269-3.228,22.549-20.245-1.956-1.828-3.563-3.264-3.563-3.264S889.353,497.855,889.553,502.654Z" transform="translate(-41 -48.59)" fill="#229a22" opacity="0.1"/><path d="M750.8,630.269c4.035-2.856,7.875-6.751,10.167-7.831,3.4-1.6,8.6-6.8,8.6-6.8s1.32-.9,3.344-2.084c3.711-2.176,9.795-5.327,14.454-5.715,4.175-.348,18.046-1.236,28.956-1.916,7.9-.5,14.238-.884,14.238-.884s13-4.6,18.6-1.6a58.761,58.761,0,0,0,12.6,4.6s0-.436.024-1.188l-.024-.012-4.2-6.8L813.2,603.825l-5.631-3.783-28.2,2-8.375,5.383-7.223.616s1.156.7,3.232,1.952l-15.63,10.047S750.892,624.506,750.8,630.269Z" transform="translate(-41 -48.59)" fill="#229a22" opacity="0.1"/><path d="M744.972,632.037a18.1,18.1,0,0,0,5.855-2.984h0c4.027-2.852,7.855-6.735,10.143-7.811,3.4-1.6,8.6-6.8,8.6-6.8s10.6-7.2,17.8-7.8c1.964-.164,6.067-.448,11-.768,5.047-.336,10.955-.712,16.326-1.044,3.1-.2,6.011-.38,8.475-.532l7.4-.456s13-4.6,18.6-1.6a58.755,58.755,0,0,0,12.6,4.6s.2-14,1.8-19.8,3.8-16.4,3.8-16.4,1.8-14.6,3.6-21.2,8.8-43.394,12.4-45.794,5.6,1.8,5.6,1.8,24-.4,24.4-26.8c0,0-11.2-11.2-12-14s-11.4-13.2-11.4-13.2-6-11.2-12.8-11.4a54.7,54.7,0,0,0-9.631.3l-5.767,23.5.2,22.2,1.6,1.2-3.6,5.4v-4s-12.8-12.4-14.8-17.6-9.2-14.614-9.2-14.614-8.2-13.782-8.4-16.182-5.8-8.831-5.8-8.831a14.6,14.6,0,0,0-3.4,0,3.638,3.638,0,0,1-1.488-.208,20.027,20.027,0,0,0-9.991-.568c-6.915,1.436-17.434,4.063-20.317,7.207-4.4,4.8-10.8,9.4-18,29.4l38.795,14-3.32,6.311-30.876,58.68s-1.024,1.668-2.412,3.847h0c-1.8,2.828-4.207,6.515-5.787,8.547-2.8,3.6-2,15-2,15s-.6,5.4-2.6,7.4-1.6,9.4-1.6,9.4l-5.2,19.4s-4.8,4.4-4.8,6.4-3.8,7.6-3.8,7.6S739.173,633.437,744.972,632.037Z" transform="translate(-41 -48.59)" fill="#229a22"/><path d="M949.745,646.435s-12.6,4.2-16,10.2S949.745,646.435,949.745,646.435Z" transform="translate(-41 -48.59)" fill="#229a22" opacity="0.1"/><path d="M943.346,633.237c-.4.6-17.255,17.513-16.2,21.6S943.346,633.237,943.346,633.237Z" transform="translate(-41 -48.59)" fill="#229a22" opacity="0.1"/><path d="M850.758,645.235s-18.8,8.865-20.4,12.731S850.758,645.235,850.758,645.235Z" transform="translate(-41 -48.59)" fill="#229a22" opacity="0.1"/><path d="M849.558,656.634s-16.964,7.2-19.281,9S849.558,656.634,849.558,656.634Z" transform="translate(-41 -48.59)" fill="#229a22" opacity="0.1"/><path d="M841.759,672.032s-7.513,5.6-11.656,1.2S841.759,672.032,841.759,672.032Z" transform="translate(-41 -48.59)" fill="#229a22" opacity="0.1"/><path d="M869.959,526.051c-.4.6-25.4,45.594-32,48.993S869.959,526.051,869.959,526.051Z" transform="translate(-41 -48.59)" fill="#229a22" opacity="0.1"/><path d="M868.756,543.049c0,1-24.4,53.193-28.4,53.793S868.756,543.049,868.756,543.049Z" transform="translate(-41 -48.59)" fill="#229a22" opacity="0.1"/><path d="M775.968,576.644s-11.783,25.162-16.4,26.6S775.968,576.644,775.968,576.644Z" transform="translate(-41 -48.59)" fill="#229a22" opacity="0.1"/><path d="M773.969,565.446s-4.062,8.8-6.53,8.8S773.969,565.446,773.969,565.446Z" transform="translate(-41 -48.59)" fill="#229a22" opacity="0.1"/><path d="M887.557,394.877a34.459,34.459,0,0,1-1.73,10.8,28.228,28.228,0,0,1-1,2.65,10.173,10.173,0,0,1-4.85-2.13,12.008,12.008,0,0,1-3.63-3.88,48.631,48.631,0,0,1-1.77-5.05,11.748,11.748,0,0,0-9.49-7.19c1.15,1.96-.68,4.65-2.93,5s-4.44-1-5.99-2.67-2.67-3.7-4.21-5.37-3.74-3.01-5.99-2.67c-1.99.3-3.53,1.82-5.2,2.95s-3.99,1.89-5.6.68c-.9-.67-1.34-1.81-2.2-2.54-2.21-1.85-5.65.06-7.28,2.45-2.51,3.7-4.04,5.94-7.3,7.61-.02-.21-.02-.43-.02-.64a34.6,34.6,0,1,1,69.2,0Z" transform="translate(-41 -48.59)" fill="#229a22" opacity="0.1"/><path d="M825.691,386.906c1.627-2.392,5.065-4.3,7.281-2.445.86.722,1.3,1.863,2.2,2.538,1.607,1.211,3.94.451,5.6-.683s3.207-2.647,5.2-2.95c2.25-.342,4.444,1,5.989,2.67s2.666,3.7,4.212,5.37,3.74,3.011,5.99,2.667,4.085-3.037,2.928-5a11.751,11.751,0,0,1,9.488,7.19,48.664,48.664,0,0,0,1.771,5.049,11.976,11.976,0,0,0,3.634,3.876c1.835,1.345,4.059,2.479,6.3,2.089s4.139-2.959,3.1-4.981c.716,1.088,2.254-.427,2.487-1.709a18.29,18.29,0,0,0-.462-8.44c-1.1-3.717-3.423-7.4-2.53-11.177.707-2.988,3.26-5.133,4.81-7.783,2.747-4.7,2.018-11.027-1.323-15.324a17.422,17.422,0,0,0-14.394-6.309,23.8,23.8,0,0,1-4.526.084c-2.511-.373-4.634-1.989-6.635-3.551l-16.75-13.075a20.61,20.61,0,0,0-6.331-3.815c-2.367-.734-5.2-.481-6.957,1.272-3.136,3.136-1.143,8.534-2.4,12.787-1.091,3.683-4.6,6.18-8.235,7.424s-7.523,1.517-11.258,2.418a6.177,6.177,0,0,0-3.013,1.4,5.959,5.959,0,0,0-1.309,4.251,23.173,23.173,0,0,0,2.6,10.814c1.94,3.73,5.014,7.565,3.926,11.626-.576,2.149-2.232,3.8-3.692,5.485-3.165,3.641-4.234,9.02,1.722,7.141C820.843,394.012,822.453,391.666,825.691,386.906Z" transform="translate(-41 -48.59)" fill="#229a22"/><g opacity="0.1"><path d="M891.867,396.648c-.233,1.282-1.771,2.8-2.487,1.709,1.042,2.023-.856,4.591-3.1,4.981s-4.465-.744-6.3-2.089a11.975,11.975,0,0,1-3.634-3.876,48.713,48.713,0,0,1-1.772-5.049,11.751,11.751,0,0,0-9.488-7.189c1.157,1.961-.678,4.653-2.928,5s-4.444-1-5.99-2.667-2.666-3.7-4.212-5.37-3.739-3.013-5.989-2.67c-1.99.3-3.534,1.816-5.2,2.95s-4,1.894-5.6.683c-.9-.676-1.336-1.817-2.2-2.538-2.216-1.859-5.654.053-7.281,2.445-3.238,4.759-4.847,7.105-10.585,8.915-1.883.594-3.061.46-3.7-.113-1.259,2.891-.686,5.438,3.7,4.056,5.738-1.81,7.347-4.156,10.585-8.915,1.627-2.392,5.065-4.3,7.281-2.445.86.722,1.3,1.863,2.2,2.538,1.607,1.211,3.94.451,5.6-.683s3.207-2.647,5.2-2.95c2.25-.342,4.444,1,5.989,2.67s2.666,3.7,4.212,5.37,3.74,3.011,5.99,2.667,4.085-3.037,2.928-5a11.751,11.751,0,0,1,9.488,7.19,48.73,48.73,0,0,0,1.772,5.049,11.976,11.976,0,0,0,3.634,3.876c1.835,1.345,4.059,2.479,6.3,2.089s4.139-2.959,3.1-4.981c.716,1.088,2.254-.427,2.487-1.709a18.263,18.263,0,0,0,.18-5.231C892,395.791,891.944,396.221,891.867,396.648Z" transform="translate(-41 -48.59)" fill="#229a22"/><path d="M817.028,379.4c.015-.051.037-.1.051-.152,1.088-4.061-1.986-7.9-3.926-11.626a23.176,23.176,0,0,1-2.486-8.446,11.23,11.23,0,0,0-.115,1.575,23.173,23.173,0,0,0,2.6,10.814C814.479,374.12,816.334,376.719,817.028,379.4Z" transform="translate(-41 -48.59)" fill="#229a22"/><path d="M893.685,369.248c-1.55,2.65-4.1,4.8-4.81,7.783a8.684,8.684,0,0,0,.035,3.832c.744-2.928,3.245-5.056,4.775-7.672a13.142,13.142,0,0,0,1.54-8.443,12.372,12.372,0,0,1-1.54,4.5Z" transform="translate(-41 -48.59)" fill="#229a22"/></g><path d="M770.757,550.1h0a30.554,30.554,0,0,1,.612,3.348s15.8,37,17.8,39.2c.616.676,2.936,4,5.851,8.287,1.056,1.548,2.188,3.224,3.348,4.943,6.047,8.975,12.8,19.165,12.8,19.165l14.8,13s32.192,2.576,42.422-7.871c-1.24-.864-2.028-1.328-2.028-1.328l-4.4-3.42c-2.272-3.831-10.959-7.563-19.753-10.495-8.1.06-14.73.716-14.73.716l-2.108-5.551-2.2-5.791-11.186-29.452s-7.215-37.2-9.615-38.995-1.8-7.4-1.8-7.4,4.4-15.8,2.8-18,2.6-18.4,2.6-18.4a16.783,16.783,0,0,0-1.92-4.487l-30.876,58.68S772.145,547.916,770.757,550.1Z" transform="translate(-41 -48.59)" fill="#229a22" opacity="0.1"/><path d="M806.364,490.856s-4.2,16.2-2.6,18.4-2.8,18-2.8,18-.6,5.6,1.8,7.4,9.614,38.995,9.614,38.995l15.493,40.794s48.482-4.8,43.483,10.4-44.994,12-44.994,12l-14.8-13s-20-30.2-22-32.4-17.8-39.2-17.8-39.2-.8-7.4-4.2-11.2-.8-10.226-.8-10.226-4.2-48.366.2-54.165S801.765,473.458,806.364,490.856Z" transform="translate(-41 -48.59)" fill="#229a22"/><path d="M781.568,460.46l-12.6,7.6s-3.6,12.2-6.4,13.8c0,0,25.2-14,44.194,18.2,0,0-.6-4.2,2-6.2s2-10.6,2-10.6a34.63,34.63,0,0,0,1.8-4.2C814.363,474.658,804.964,449.462,781.568,460.46Z" transform="translate(-41 -48.59)" fill="#229a22" opacity="0.1"/><path d="M781.168,459.66l-12.6,7.6s-3.6,12.2-6.4,13.8c0,0,25.2-14,44.194,18.2,0,0-.6-4.2,2-6.2s2-10.6,2-10.6a34.633,34.633,0,0,0,1.8-4.2C813.963,473.858,804.564,448.662,781.168,459.66Z" transform="translate(-41 -48.59)" fill="#229a22"/><ellipse cx="37.557" cy="39.865" rx="37.557" ry="39.865" transform="translate(590.322 681.545)" fill="#229a22"/><ellipse cx="37.557" cy="39.865" rx="37.557" ry="39.865" transform="translate(590.322 681.545)" fill="#229a22" opacity="0.1"/><ellipse cx="37.557" cy="38.978" rx="37.557" ry="38.978" transform="translate(596.803 683.321)" fill="#229a22"/><ellipse cx="46.386" cy="7.841" rx="46.386" ry="7.841" transform="translate(43.757 727.635)" fill="#229a22"/><path d="M150.323,771.238c1.986-1.846,3.85-4.023,4.422-6.674s-.557-5.829-3.09-6.8c-2.838-1.085-5.871.882-8.17,2.868s-4.935,4.254-7.944,3.833a12.094,12.094,0,0,0,3.74-11.319,4.728,4.728,0,0,0-1.04-2.3c-1.576-1.684-4.432-.961-6.318.366-6,4.22-7.673,12.369-7.706,19.7-.605-2.646-.1-5.4-.11-8.116s-.759-5.722-3.048-7.18a9.181,9.181,0,0,0-4.649-1.093c-2.7-.1-5.7.171-7.542,2.143-2.288,2.451-1.695,6.563.3,9.26s5.019,4.388,7.806,6.252a17.31,17.31,0,0,1,5.578,5.321,5.262,5.262,0,0,1,.414.951h16.906a47.109,47.109,0,0,0,10.455-7.22Z" transform="translate(-41 -48.59)" fill="#229a22"/><path d="M550.621,732.934a40.436,40.436,0,0,1,5.027,9.18c.336.844.665,1.731.976,2.662,5,14.935-2.921,32.845-5.185,30.913s-9.318-5.516-10.682-.479-6.4,10.185-6.4,10.185c-9.18,9.233-17.49-.743-22.944-11.05a99.847,99.847,0,0,1-4.746-10.485c-1.211-3.166-1.907-5.353-1.907-5.353L543,725.928S546.692,727.625,550.621,732.934Z" transform="translate(-41 -48.59)" fill="#229a22"/><path d="M490.357,753.766a40.437,40.437,0,0,1,5.027,9.181c.336.844.665,1.731.976,2.662,5,14.935-2.921,32.845-5.185,30.913s-9.318-5.516-10.682-.479-6.4,10.185-6.4,10.185c-9.18,9.233-17.49-.743-22.944-11.05a99.847,99.847,0,0,1-4.745-10.485c-1.211-3.166-1.907-5.353-1.907-5.353l38.237-32.579S486.428,748.457,490.357,753.766Z" transform="translate(-41 -48.59)" fill="#229a22"/><path d="M369.354,782.546a40.434,40.434,0,0,1-1.988,10.276c-.28.864-.593,1.757-.947,2.672-5.684,14.688-23.21,23.422-23.72,20.49s-3.653-10.194-7.918-7.186-11.43,3.755-11.43,3.755c-12.96,1.25-12.991-11.734-10.612-23.15a99.846,99.846,0,0,1,3.038-11.1c1.088-3.21,1.949-5.338,1.949-5.338l50.229-.679S369.717,775.951,369.354,782.546Z" transform="translate(-41 -48.59)" fill="#229a22"/><path d="M304.455,766.178a40.437,40.437,0,0,1-1.988,10.276c-.28.864-.593,1.757-.947,2.672-5.684,14.688-23.21,23.422-23.72,20.49s-3.653-10.194-7.918-7.186-11.43,3.755-11.43,3.755c-12.96,1.25-12.991-11.734-10.612-23.15a99.854,99.854,0,0,1,3.038-11.1c1.088-3.21,1.949-5.338,1.949-5.338l50.229-.679S304.818,759.582,304.455,766.178Z" transform="translate(-41 -48.59)" fill="#229a22"/><path d="M550.621,732.934a40.436,40.436,0,0,1,5.027,9.18c.336.844.665,1.731.976,2.662,5,14.935-2.921,32.845-5.185,30.913s-9.318-5.516-10.682-.479-6.4,10.185-6.4,10.185c-9.18,9.233-17.49-.743-22.944-11.05a99.847,99.847,0,0,1-4.746-10.485c-1.211-3.166-1.907-5.353-1.907-5.353L543,725.928S546.692,727.625,550.621,732.934Z" transform="translate(-41 -48.59)" fill="#229a22" opacity="0.2"/><path d="M490.357,753.766a40.437,40.437,0,0,1,5.027,9.181c.336.844.665,1.731.976,2.662,5,14.935-2.921,32.845-5.185,30.913s-9.318-5.516-10.682-.479-6.4,10.185-6.4,10.185c-9.18,9.233-17.49-.743-22.944-11.05a99.847,99.847,0,0,1-4.745-10.485c-1.211-3.166-1.907-5.353-1.907-5.353l38.237-32.579S486.428,748.457,490.357,753.766Z" transform="translate(-41 -48.59)" fill="#229a22" opacity="0.2"/><path d="M369.354,782.546a40.434,40.434,0,0,1-1.988,10.276c-.28.864-.593,1.757-.947,2.672-5.684,14.688-23.21,23.422-23.72,20.49s-3.653-10.194-7.918-7.186-11.43,3.755-11.43,3.755c-12.96,1.25-12.991-11.734-10.612-23.15a99.846,99.846,0,0,1,3.038-11.1c1.088-3.21,1.949-5.338,1.949-5.338l50.229-.679S369.717,775.951,369.354,782.546Z" transform="translate(-41 -48.59)" fill="#229a22" opacity="0.2"/><path d="M304.455,766.178a40.437,40.437,0,0,1-1.988,10.276c-.28.864-.593,1.757-.947,2.672-5.684,14.688-23.21,23.422-23.72,20.49s-3.653-10.194-7.918-7.186-11.43,3.755-11.43,3.755c-12.96,1.25-12.991-11.734-10.612-23.15a99.854,99.854,0,0,1,3.038-11.1c1.088-3.21,1.949-5.338,1.949-5.338l50.229-.679S304.818,759.582,304.455,766.178Z" transform="translate(-41 -48.59)" fill="#229a22" opacity="0.2"/><path d="M652.616,546.044c0,134.159-45.384,242.916-254.82,242.916-140.733,0-249.612-34.968-254.82-242.916C139.617,411.927,257.063,303.128,397.8,303.128S652.616,411.885,652.616,546.044Z" transform="translate(-41 -48.59)" fill="#229a22"/><path d="M349.994,307.369h.03a.058.058,0,0,1-.022.007Z" transform="translate(-41 -48.59)" fill="#229a22" opacity="0.2"/><path d="M350.492,307.287c.647-.1,1.927-.283,3.787-.424l-4.144.491q.089-.022.223-.045C350.4,307.3,350.44,307.294,350.492,307.287Z" transform="translate(-41 -48.59)" fill="#229a22" opacity="0.2"/><path d="M538.784,406.544l-18.6,6.7a415.447,415.447,0,0,0-30.556-36.426,298.5,298.5,0,0,0-38.7-34.663c-47.623-35.3-84.459-36.2-96.623-35.288l27.96-3.288a227.32,227.32,0,0,1,75.062,27.134,247.978,247.978,0,0,1,45.109,33.324C526.783,386.627,538.784,406.544,538.784,406.544Z" transform="translate(-41 -48.59)" fill="#229a22" opacity="0.2"/><path d="M370.64,419.192s-24.552-81.84-3.72-104.16c0,0,32.736-11.16,57.288,52.08Z" transform="translate(-41 -48.59)" fill="#229a22" opacity="0.2"/><path d="M494.962,342.754s65.11-55.329,93.913-45.2c0,0,23.358,25.506-24.714,73.372Z" transform="translate(-41 -48.59)" fill="#229a22"/><path d="M494.962,342.754s65.11-55.329,93.913-45.2c0,0,23.358,25.506-24.714,73.372Z" transform="translate(-41 -48.59)" fill="#229a22" opacity="0.2"/><path d="M698,607.8c0,72.113-51.748,129.084-100.44,129.084S521.672,679.909,521.672,607.8s39.554-127.754,88.164-130.572C686.84,472.76,698,535.683,698,607.8Z" transform="translate(-41 -48.59)" fill="#229a22"/><path d="M698,607.8c0,72.113-51.748,129.084-100.44,129.084S521.672,679.909,521.672,607.8s39.554-127.754,88.164-130.572C686.84,472.76,698,535.683,698,607.8Z" transform="translate(-41 -48.59)" fill="#229a22" opacity="0.2"/><ellipse cx="16.368" cy="20.832" rx="16.368" ry="20.832" transform="translate(537.216 549.162)" fill="#229a22"/><ellipse cx="16.368" cy="20.832" rx="16.368" ry="20.832" transform="translate(595.248 531.306)" fill="#229a22"/><path d="M505.616,350.6a29.7,29.7,0,0,1-3.177,13.437,28.552,28.552,0,0,1-12.812,12.782,298.5,298.5,0,0,0-38.7-34.663,29.161,29.161,0,0,1,6.4-11.443,27.429,27.429,0,0,1,20.341-9.114C493.1,321.594,505.616,334.577,505.616,350.6Z" transform="translate(-41 -48.59)" fill="#229a22"/></g></svg>