<svg xmlns="http://www.w3.org/2000/svg" xmlns:xlink="http://www.w3.org/1999/xlink" width="922.603" height="686.18" viewBox="0 0 922.603 686.18"><defs><linearGradient id="a" x1="0.5" y1="1.198" x2="0.5" y2="-0.168" gradientUnits="objectBoundingBox"><stop offset="0" stop-color="gray" stop-opacity="0.251"/><stop offset="0.535" stop-color="gray" stop-opacity="0.122"/><stop offset="1" stop-color="gray" stop-opacity="0.102"/></linearGradient><linearGradient id="b" y1="1" y2="0" xlink:href="#a"/></defs><g transform="translate(6.915 6.904)"><rect width="728.622" height="445.002" rx="27.5" transform="translate(-6.915 209.293) rotate(-17.261)" fill="url(#a)"/><rect width="713.756" height="429.252" rx="27.5" transform="translate(3.95 210.763) rotate(-17.261)" fill="#fff"/><rect width="713.756" height="61.559" transform="translate(20.735 264.783) rotate(-17.261)" fill="#1e791e"/><rect width="181.351" height="26.62" transform="translate(161.645 527.632) rotate(-17.261)" fill="#bdbdbd"/><rect width="314.452" height="26.62" transform="translate(148.315 484.734) rotate(-17.261)" fill="#e0e0e0"/><rect width="732.73" height="445.44" rx="27.5" transform="translate(182.958 233.836)" fill="url(#b)"/><path d="M27.5,0H686.256a27.5,27.5,0,0,1,27.5,27.5V401.752a27.5,27.5,0,0,1-27.5,27.5H27.5c-7.791,0-20.044-8.672-20.044-8.672S0,409.148,0,401.752V27.5A27.5,27.5,0,0,1,27.5,0Z" transform="translate(191.277 238.378)" fill="#fff"/><rect width="20.797" height="59.064" transform="translate(361.013 446.76)" fill="#e0e0e0"/><rect width="20.797" height="59.064" transform="translate(387.633 446.76)" fill="#e0e0e0"/><rect width="20.797" height="59.064" transform="translate(414.253 446.76)" fill="#e0e0e0"/><rect width="20.797" height="59.064" transform="translate(460.839 446.76)" fill="#e0e0e0"/><rect width="20.797" height="59.064" transform="translate(487.459 446.76)" fill="#e0e0e0"/><rect width="20.797" height="59.064" transform="translate(514.079 446.76)" fill="#e0e0e0"/><rect width="20.797" height="59.064" transform="translate(560.665 446.76)" fill="#e0e0e0"/><rect width="20.797" height="59.064" transform="translate(587.285 446.76)" fill="#e0e0e0"/><rect width="20.797" height="59.064" transform="translate(613.905 446.76)" fill="#e0e0e0"/><rect width="20.797" height="59.064" transform="translate(660.491 446.76)" fill="#e0e0e0"/><rect width="20.797" height="59.064" transform="translate(687.111 446.76)" fill="#e0e0e0"/><rect width="20.797" height="59.064" transform="translate(713.731 446.76)" fill="#e0e0e0"/><rect width="124" height="68" transform="translate(236.688 350.836)" fill="#1e791e"/><rect width="76" height="76" transform="translate(718.688 573.836)" fill="#1e791e" opacity="0.1"/><rect width="76" height="76" transform="translate(756.688 573.836)" fill="#1e791e" opacity="0.1"/></g></svg>