<svg xmlns="http://www.w3.org/2000/svg" xmlns:xlink="http://www.w3.org/1999/xlink" width="859.395" height="767.784" viewBox="0 0 859.395 767.784">
  <defs>
    <linearGradient id="linear-gradient" y1="0.5" x2="1" y2="0.5" gradientUnits="objectBoundingBox">
      <stop offset="0" stop-color="gray" stop-opacity="0.251"/>
      <stop offset="0.535" stop-color="gray" stop-opacity="0.122"/>
      <stop offset="1" stop-color="gray" stop-opacity="0.102"/>
    </linearGradient>
  </defs>
  <g id="Group_7" data-name="Group 7" transform="translate(-0.004)">
    <path id="Path_24" data-name="Path 24" d="M601.7,76.854,332,242.825s0,342.314,269.7,529.031C871.4,585.139,871.4,242.825,871.4,242.825Z" transform="translate(-170.3 -66.108)" fill="#3f3d56"/>
    <path id="Path_25" data-name="Path 25" d="M603.31,76.854l-4.61,2.837V768.618c1.531,1.082,3.062,2.165,4.61,3.238,269.7-186.717,269.7-529.031,269.7-529.031Z" transform="translate(-170.3 -66.108)" fill="#1d771d" opacity="0.04"/>
    <g id="Group_2" data-name="Group 2" opacity="0.7">
      <path id="Path_26" data-name="Path 26" d="M366.106,347.068l50.843,46.606,63.028-90.924L505.4,323.935l-88.45,112.109-72.028-80.5Z" fill="url(#linear-gradient)"/>
    </g>
    <path id="Path_27" data-name="Path 27" d="M378.106,349.868l41.243,37.806,58.428-85.924L498.4,318.935l-79.05,103.109-58.428-65.3Z" fill="#3ad29f"/>
    <path id="Path_28" data-name="Path 28" d="M335.59,114.064a3.675,3.675,0,0,1-2.048-4.441,1.768,1.768,0,0,0,.08-.408h0a1.843,1.843,0,0,0-3.31-1.221h0a1.767,1.767,0,0,0-.2.362,3.675,3.675,0,0,1-4.441,2.047,1.766,1.766,0,0,0-.408-.08h0a1.843,1.843,0,0,0-1.221,3.31h0a1.766,1.766,0,0,0,.362.2,3.675,3.675,0,0,1,2.047,4.441,1.767,1.767,0,0,0-.08.408h0a1.843,1.843,0,0,0,3.31,1.221h0a1.769,1.769,0,0,0,.2-.362,3.675,3.675,0,0,1,4.441-2.047,1.766,1.766,0,0,0,.408.08h0a1.843,1.843,0,0,0,1.221-3.31h0a1.765,1.765,0,0,0-.362-.2Z" transform="translate(-170.3 -66.108)" fill="#4d8af0" opacity="0.5"/>
    <path id="Path_29" data-name="Path 29" d="M189.59,439.064a3.675,3.675,0,0,1-2.047-4.441,1.767,1.767,0,0,0,.08-.408h0a1.843,1.843,0,0,0-3.31-1.221h0a1.767,1.767,0,0,0-.2.362,3.675,3.675,0,0,1-4.441,2.047,1.767,1.767,0,0,0-.408-.08h0a1.843,1.843,0,0,0-1.221,3.31h0a1.767,1.767,0,0,0,.362.2,3.675,3.675,0,0,1,2.048,4.441,1.767,1.767,0,0,0-.08.408h0a1.843,1.843,0,0,0,3.31,1.221h0a1.766,1.766,0,0,0,.2-.362,3.675,3.675,0,0,1,4.441-2.048,1.768,1.768,0,0,0,.408.08h0a1.843,1.843,0,0,0,1.221-3.31h0A1.764,1.764,0,0,0,189.59,439.064Z" transform="translate(-170.3 -66.108)" fill="#4d8af0" opacity="0.5"/>
    <circle id="Ellipse_7" data-name="Ellipse 7" cx="6" cy="6" r="6" transform="translate(742.399 248)" fill="#f55f44" opacity="0.5"/>
    <circle id="Ellipse_8" data-name="Ellipse 8" cx="6" cy="6" r="6" transform="translate(115.399 677)" fill="#f55f44" opacity="0.5"/>
    <circle id="Ellipse_9" data-name="Ellipse 9" cx="6" cy="6" r="6" transform="translate(844.399 479)" fill="#f55f44" opacity="0.5"/>
    <path id="Path_30" data-name="Path 30" d="M874.59,143.064a3.675,3.675,0,0,1-2.048-4.441,1.77,1.77,0,0,0,.08-.408h0a1.843,1.843,0,0,0-3.31-1.221h0a1.766,1.766,0,0,0-.2.362,3.675,3.675,0,0,1-4.441,2.047,1.767,1.767,0,0,0-.408-.08h0a1.843,1.843,0,0,0-1.221,3.31h0a1.764,1.764,0,0,0,.362.2,3.675,3.675,0,0,1,2.047,4.441,1.763,1.763,0,0,0-.08.408h0a1.843,1.843,0,0,0,3.31,1.221h0a1.767,1.767,0,0,0,.2-.362,3.675,3.675,0,0,1,4.441-2.047,1.764,1.764,0,0,0,.408.08h0a1.843,1.843,0,0,0,1.221-3.31h0a1.768,1.768,0,0,0-.362-.2Z" transform="translate(-170.3 -66.108)" fill="#4d8af0" opacity="0.5"/>
    <path id="Path_31" data-name="Path 31" d="M974.59,771.064a3.675,3.675,0,0,1-2.047-4.441,1.77,1.77,0,0,0,.08-.408h0a1.843,1.843,0,0,0-3.31-1.221h0a1.771,1.771,0,0,0-.2.362,3.675,3.675,0,0,1-4.441,2.047,1.765,1.765,0,0,0-.408-.08h0a1.843,1.843,0,0,0-1.221,3.31h0a1.762,1.762,0,0,0,.362.2,3.675,3.675,0,0,1,2.047,4.441,1.77,1.77,0,0,0-.08.408h0a1.843,1.843,0,0,0,3.31,1.221h0a1.765,1.765,0,0,0,.2-.362,3.674,3.674,0,0,1,4.441-2.047,1.763,1.763,0,0,0,.408.08h0a1.843,1.843,0,0,0,1.221-3.31h0a1.767,1.767,0,0,0-.362-.2Z" transform="translate(-170.3 -66.108)" fill="#4d8af0" opacity="0.5"/>
    <path id="Path_32" data-name="Path 32" d="M182.59,249.064a3.675,3.675,0,0,1-2.048-4.441,1.766,1.766,0,0,0,.08-.408h0a1.843,1.843,0,0,0-3.31-1.221h0a1.766,1.766,0,0,0-.2.362,3.675,3.675,0,0,1-4.441,2.047,1.766,1.766,0,0,0-.408-.08h0a1.843,1.843,0,0,0-1.221,3.31h0a1.766,1.766,0,0,0,.362.2,3.675,3.675,0,0,1,2.047,4.441,1.766,1.766,0,0,0-.08.408h0a1.843,1.843,0,0,0,3.31,1.221h0a1.766,1.766,0,0,0,.2-.362,3.675,3.675,0,0,1,4.441-2.048,1.766,1.766,0,0,0,.408.08h0a1.843,1.843,0,0,0,1.221-3.31h0A1.767,1.767,0,0,0,182.59,249.064Z" transform="translate(-170.3 -66.108)" fill="#4d8af0" opacity="0.5"/>
    <circle id="Ellipse_10" data-name="Ellipse 10" cx="6" cy="6" r="6" transform="translate(73.399 278)" fill="#47e6b1" opacity="0.5"/>
    <circle id="Ellipse_11" data-name="Ellipse 11" cx="6" cy="6" r="6" transform="translate(847.399 326)" fill="#47e6b1" opacity="0.5"/>
    <g id="Group_3" data-name="Group 3" opacity="0.5">
      <rect id="Rectangle_3" data-name="Rectangle 3" width="3" height="17" transform="translate(583.399)" fill="#47e6b1"/>
      <rect id="Rectangle_4" data-name="Rectangle 4" width="3" height="17" transform="translate(593.399 7) rotate(90)" fill="#47e6b1"/>
    </g>
    <g id="Group_4" data-name="Group 4" opacity="0.5">
      <rect id="Rectangle_5" data-name="Rectangle 5" width="3" height="17" transform="translate(594.399 666)" fill="#47e6b1"/>
      <rect id="Rectangle_6" data-name="Rectangle 6" width="3" height="17" transform="translate(604.399 673) rotate(90)" fill="#47e6b1"/>
    </g>
    <g id="Group_5" data-name="Group 5" opacity="0.5">
      <rect id="Rectangle_7" data-name="Rectangle 7" width="3" height="17" transform="translate(26.399 702)" fill="#47e6b1"/>
      <rect id="Rectangle_8" data-name="Rectangle 8" width="3" height="17" transform="translate(36.399 709) rotate(90)" fill="#47e6b1"/>
    </g>
    <g id="Group_6" data-name="Group 6" opacity="0.5">
      <rect id="Rectangle_9" data-name="Rectangle 9" width="3" height="17" transform="translate(709.399 396)" fill="#47e6b1"/>
      <rect id="Rectangle_10" data-name="Rectangle 10" width="3" height="17" transform="translate(719.399 403) rotate(90)" fill="#47e6b1"/>
    </g>
    <path id="Path_33" data-name="Path 33" d="M795.606,123.018l6.443,5.906,9.128-13.424,3.222,2.685-12.35,16.109-9.128-10.2Z" fill="#47e6b1" opacity="0.5"/>
    <rect id="Rectangle_11" data-name="Rectangle 11" width="22.242" height="28.597" transform="translate(589.445 240.133) rotate(-2.221)" fill="#1d771d"/>
    <path id="Path_34" data-name="Path 34" d="M681.71,405.459s-30.779-14.706-30.286-2.005,31.025,21.056,31.025,21.056Z" transform="translate(-170.3 -66.108)" fill="#ffb9b9"/>
    <path id="Path_35" data-name="Path 35" d="M698.6,512.919s-14.521,35.542-19.886,61.189-13.536,60.942-3.026,85.974,40.392,98.6,40.7,106.537-2.559,16,3.791,15.752,40.907-11.126,42.31-15.95-11.79-17.032-11.79-17.032L718.117,647.306l33.99-66.505,24.516,99.215,4.8,123.828s23.567-7.274,26.988-1.047c0,0,10.559-14.719,11.9-21.131s-4.987-128.591-4.987-128.591,21.632-139.163,4.169-138.486S733.633,473.4,698.6,512.919Z" transform="translate(-170.3 -66.108)" fill="#1d771d"/>
    <path id="Path_36" data-name="Path 36" d="M719.929,776.02s-16.109,35.6-17.635,37.252-12.023,17.956-4.085,17.648,26.68-8.984,40.476-22.239,31.984-36.219,30.335-37.745-12.947-5.858-12.947-5.858Z" transform="translate(-170.3 -66.108)" fill="#575a89"/>
    <path id="Path_37" data-name="Path 37" d="M784.292,795.784s-.972,15.937-3.9,22.41-2.559,16,5.378,15.691,28.453-4.283,28.453-4.283,1.218-9.587-.431-11.113-8.676-18.743-5.686-23.628S784.292,795.784,784.292,795.784Z" transform="translate(-170.3 -66.108)" fill="#575a89"/>
    <path id="Path_38" data-name="Path 38" d="M796.036,278.6s16.922,26.373,23.518,32.477-11.962,19.543-11.962,19.543l-33.215,4.468s.418-30.225-1.293-33.338S796.036,278.6,796.036,278.6Z" transform="translate(-170.3 -66.108)" fill="#ffb9b9"/>
    <path id="Path_39" data-name="Path 39" d="M767.165,313.109s6.843,12.454,13.193,12.208,39.2-14.239,40.6-19.064,10.88,34.557,10.88,34.557L751.465,482.25,731.86,468.7l9.5-83.045,7.8-44.821Z" transform="translate(-170.3 -66.108)" fill="#1d771d"/>
    <path id="Path_40" data-name="Path 40" d="M823.921,439.692c-3.206,6.707-5.208,13.7-4.931,20.86.012.318.025.635.053.952.761,14.693,6.173,31.686,8.115,44.044,1.409,8.865,1.008,15.336-4.18,16.856-12.577,3.668,1.834,6.289-46.826,22.485s-57.152,2.216-57.275-.959,6.891-27.3,5.242-28.822-23.074,19.974-29.548,17.045-.739-19.051-.739-19.051,14.583-33.954,14.275-41.892S730.2,425.837,730.2,425.837l15.234-99.167s5.858-12.947,13.734-14.842,14.411,2.621,14.411,2.621L760.4,343.58,746.492,395l2.326,18.989s16.17-34.016,26.791-47.147,33.264-44.218,33.264-44.218,5.286-17.837,1.3-23.168c-3.991-5.346,16.647-6.147,25.446,15.771,4.664,11.616,12.236,28.939,16.979,45.068,4.227,14.289,6.223,27.646,2.036,35.281C848.229,407.237,832.129,422.568,823.921,439.692Z" transform="translate(-170.3 -66.108)" fill="#575a89"/>
    <path id="Path_41" data-name="Path 41" d="M854.629,395.573c-6.4,11.664-22.5,27-30.708,44.119-2.144-7.723-4.759-15.715-4.759-15.715s-10.031-53.669,19.64-67.539a19.858,19.858,0,0,1,13.791,3.853C856.82,374.581,858.817,387.938,854.629,395.573Z" transform="translate(-170.3 -66.108)" opacity="0.1"/>
    <path id="Path_42" data-name="Path 42" d="M736.843,392.191l-25.154,7.335-34.926,1.354-3.593,30.348,57.4,4.134S744.9,395.058,736.843,392.191Z" transform="translate(-170.3 -66.108)" fill="#575a89"/>
    <path id="Path_43" data-name="Path 43" d="M777.861,494.231s-33.652,5.583-25.971,15.71,37.492-.52,37.492-.52Z" transform="translate(-170.3 -66.108)" fill="#ffb9b9"/>
    <path id="Path_44" data-name="Path 44" d="M819.044,461.5c.761,14.693,6.173,31.686,8.115,44.044-10.72,10.146-20.914,19.1-24.756,19.244-7.938.308-20.7-.787-25.4.985s-7.458-28.33-7.458-28.33,2.806-9.648,15.321-14.9C793.313,478.99,809.506,469.347,819.044,461.5Z" transform="translate(-170.3 -66.108)" opacity="0.1"/>
    <path id="Path_45" data-name="Path 45" d="M838.433,346.913s26.865-4.222,25.414,40.353,2.832,73.027-7.973,81.4-45.9,46.3-53.84,46.606-20.7-.787-25.4.985-7.458-28.33-7.458-28.33,2.806-9.648,15.321-14.9,42-23.888,41.756-30.238-7.458-28.33-7.458-28.33S808.762,360.783,838.433,346.913Z" transform="translate(-170.3 -66.108)" fill="#575a89"/>
    <circle id="Ellipse_12" data-name="Ellipse 12" cx="34.952" cy="34.952" r="34.952" transform="translate(567.093 181.639)" fill="#ffb9b9"/>
    <path id="Path_46" data-name="Path 46" d="M748.811,232.6a6.75,6.75,0,0,1-2.939,1.475,2.1,2.1,0,0,1-2.43-1.683c-.8,1.658-1.7,3.426-3.335,4.277s-4.157.137-4.393-1.689a7.706,7.706,0,0,1-1.774,3.744c-1.013.966-2.85,1.21-3.734.125.715,3.907.274,7.926.5,11.892s1.282,8.17,4.278,10.778c4.37,3.8,10.941,2.865,16.689,2.144a5.066,5.066,0,0,1,2.615.143c2.152.917,2.055,3.913,2.084,6.252a17.373,17.373,0,0,0,15.212,16.5,8.709,8.709,0,0,0,6.472-1.58c1.632-1.383,2.466-3.638,4.336-4.677,3.042-1.69,6.732.775,8.956,3.452s4.416,5.969,7.862,6.459c4.557.648,8.028-4,9.73-8.272a48.223,48.223,0,0,0-.958-37.47C798.467,223.729,765.964,220.448,748.811,232.6Z" transform="translate(-170.3 -66.108)" fill="#2f2e41"/>
  </g>
</svg>
