<svg xmlns="http://www.w3.org/2000/svg" xmlns:xlink="http://www.w3.org/1999/xlink" width="971.7" height="764.18" viewBox="0 0 971.7 764.18">
  <defs>
    <linearGradient id="linear-gradient" x1="0.501" y1="1.001" x2="0.501" gradientUnits="objectBoundingBox">
      <stop offset="0" stop-color="gray" stop-opacity="0.251"/>
      <stop offset="0.54" stop-color="gray" stop-opacity="0.122"/>
      <stop offset="1" stop-color="gray" stop-opacity="0.102"/>
    </linearGradient>
    <linearGradient id="linear-gradient-2" x1="0.5" y1="1" x2="0.5" y2="0" xlink:href="#linear-gradient"/>
    <linearGradient id="linear-gradient-3" x1="0.444" y1="2.08" x2="0.444" y2="0.698" xlink:href="#linear-gradient"/>
    <linearGradient id="linear-gradient-4" x1="0.027" y1="4.202" x2="0.027" y2="3.205" xlink:href="#linear-gradient"/>
    <linearGradient id="linear-gradient-5" x1="0.684" y1="0.372" x2="0.684" y2="-0.628" xlink:href="#linear-gradient"/>
    <linearGradient id="linear-gradient-6" x1="1.326" y1="-2.088" x2="1.326" y2="-3.089" xlink:href="#linear-gradient"/>
    <linearGradient id="linear-gradient-7" x1="0.5" y1="1" x2="0.5" y2="0" xlink:href="#linear-gradient"/>
    <linearGradient id="linear-gradient-8" x1="-8.568" y1="1" x2="-8.568" y2="0" xlink:href="#linear-gradient"/>
    <linearGradient id="linear-gradient-9" x1="0.5" y1="1" x2="0.5" y2="0" xlink:href="#linear-gradient"/>
  </defs>
  <g id="Group_34" data-name="Group 34" transform="translate(-475 -157.995)">
    <g id="Group_22" data-name="Group 22" transform="translate(475 157.965)">
      <g id="Group_1" data-name="Group 1" opacity="0.5">
        <path id="Path_1" data-name="Path 1" d="M808.14,68c-3.81-.06-8.62,1-11.56,6.27-5.76,10.36,3.51,20.55-1.27,31.59a18.38,18.38,0,0,1-6.2,7.48c-4.62,3.33-9.33,4.32-14,6.31A25.66,25.66,0,0,0,762,131.35a30.62,30.62,0,0,0-2.76,18.57c.92,5.52,3.09,9.9,4.88,14.62a91.713,91.713,0,0,1,4.69,18.06,33.366,33.366,0,0,1,.46,8.72,54.908,54.908,0,0,1-2.69,10.89L756.3,234.4a75.176,75.176,0,0,0-3.3,12.9,54.211,54.211,0,0,0,.4,13.75c1.12,9.42,2.37,19.22,6.83,25.11s13.21,6.27,19.61-2.08c6.09-8,7.66-20.1,13.24-28.8,8.79-13.72,22.85-12.53,32.27-25.38,9-12.32,8.86-30.1,14.51-45.26,4-10.86,11-20,15.72-30.55,6.81-15.21,8.37-32.29,6-45.77a67.93,67.93,0,0,0-15.15-32.09c-2.92-3.54-6.1-6.83-10.15-8-4.31-1.28-8.61,2-13.05,2.3C818.1,70.79,813.31,68.08,808.14,68Z" transform="translate(-114.15 -67.9)" fill="#0f5211"/>
        <path id="Path_2" data-name="Path 2" d="M832.3,68.1s-24.8,143.65-66,222.08" transform="translate(-114.15 -67.9)" fill="none" stroke="#535461" stroke-miterlimit="10" stroke-width="2"/>
        <path id="Path_3" data-name="Path 3" d="M796.3,74.93s30.26,31,18.68,73.84" transform="translate(-114.15 -67.9)" fill="none" stroke="#535461" stroke-miterlimit="10" stroke-width="2"/>
        <path id="Path_4" data-name="Path 4" d="M760.63,134.52s53.25,21.22,46.21,45.34" transform="translate(-114.15 -67.9)" fill="none" stroke="#535461" stroke-miterlimit="10" stroke-width="2"/>
        <path id="Path_5" data-name="Path 5" d="M861.74,108S838,117.67,813.4,155.11" transform="translate(-114.15 -67.9)" fill="none" stroke="#535461" stroke-miterlimit="10" stroke-width="2"/>
        <path id="Path_6" data-name="Path 6" d="M825,230.05s-16.07,5.58-24.28-29" transform="translate(-114.15 -67.9)" fill="none" stroke="#535461" stroke-miterlimit="10" stroke-width="2"/>
        <path id="Path_7" data-name="Path 7" d="M758.15,233.34s30.92,4.12,35.52-10" transform="translate(-114.15 -67.9)" fill="none" stroke="#535461" stroke-miterlimit="10" stroke-width="2"/>
      </g>
      <g id="Group_2" data-name="Group 2" opacity="0.5">
        <path id="Path_8" data-name="Path 8" d="M215.37,245.8c-2.14,3.16-3.9,7.75-1.1,13.1,5.5,10.5,19.1,8.34,25.71,18.39a18.38,18.38,0,0,1,2.85,9.29c.25,5.69-1.51,10.17-2.42,15.18A25.66,25.66,0,0,0,243,319.11a30.62,30.62,0,0,0,14,12.49c5.12,2.26,10,2.84,14.9,3.94a91.709,91.709,0,0,1,17.67,6,33.36,33.36,0,0,1,7.54,4.4,54.913,54.913,0,0,1,7.63,8.22l21.27,26.26a75.183,75.183,0,0,0,9,9.84,54.21,54.21,0,0,0,11.72,7.21c8.49,4.23,17.37,8.56,24.74,8.07s12.49-7.6,9-17.54c-3.3-9.46-12.6-17.43-16.82-26.87-6.65-14.88,2.06-26-3.51-40.9-5.34-14.32-20.31-23.92-29.87-37-6.86-9.34-10.68-20.16-16.91-29.91-9-14-22.4-24.71-35-30.13a67.93,67.93,0,0,0-35.15-4.94c-4.56.5-9.05,1.35-12.29,4.08-3.44,2.9-3,8.32-5.24,12.17C223.18,239,218.28,241.52,215.37,245.8Z" transform="translate(-114.15 -67.9)" fill="#0f5211"/>
        <path id="Path_9" data-name="Path 9" d="M228.72,225.66S335.2,325.21,378.14,402.72" transform="translate(-114.15 -67.9)" fill="none" stroke="#535461" stroke-miterlimit="10" stroke-width="2"/>
        <path id="Path_10" data-name="Path 10" d="M214.68,259.5s42.55-8.27,72,24.9" transform="translate(-114.15 -67.9)" fill="none" stroke="#535461" stroke-miterlimit="10" stroke-width="2"/>
        <path id="Path_11" data-name="Path 11" d="M244.92,322s47-32.87,63.26-13.75" transform="translate(-114.15 -67.9)" fill="none" stroke="#535461" stroke-miterlimit="10" stroke-width="2"/>
        <path id="Path_12" data-name="Path 12" d="M278.24,223s-4.95,25.16,12.86,66.26" transform="translate(-114.15 -67.9)" fill="none" stroke="#535461" stroke-miterlimit="10" stroke-width="2"/>
        <path id="Path_13" data-name="Path 13" d="M360.11,320.61s-4.16,16.5-37.6,4.37" transform="translate(-114.15 -67.9)" fill="none" stroke="#535461" stroke-miterlimit="10" stroke-width="2"/>
        <path id="Path_14" data-name="Path 14" d="M326.17,378.32s20.41-23.59,11.13-35.17" transform="translate(-114.15 -67.9)" fill="none" stroke="#535461" stroke-miterlimit="10" stroke-width="2"/>
      </g>
      <path id="Path_15" data-name="Path 15" d="M195.36,130.33c-5,5.91-9.68,14.09-6,22.16,7.14,15.81,33.33,8.1,42.68,22.84,2.8,4.41,3.18,9.8,2.53,14.61-1.26,9.41-5.92,17.4-9.14,26s-4.89,19-.35,28.08c4.37,8.79,13.58,14.34,22.5,16.55s17.86,1.71,26.77,2a148.2,148.2,0,0,1,31.35,4.62,43.31,43.31,0,0,1,12.82,5c4.55,2.91,8.23,7.18,11.83,11.38l32,37.29c4.25,5,8.59,10,13.86,13.67,6.08,4.23,13,6.38,19.81,8.45,14.65,4.48,30,9,44,5.93s25.75-16.45,22.25-31.94c-3.33-14.75-18.35-25.21-23.41-39.66-8-22.77,11.75-43.89,5.82-67.06-5.68-22.22-30.86-33.68-44.86-52.49-10-13.48-13.94-30.34-22.68-44.68-12.59-20.66-34.55-34.37-56.5-39.57S276.62,70.82,256.08,76c-8.7,2.21-17.4,5-24.3,10.52-7.33,5.87-8.18,14.77-13.52,21.86C212.07,116.64,202.1,122.32,195.36,130.33Z" transform="translate(-114.15 -67.9)" fill="#0f5211"/>
      <path id="Path_16" data-name="Path 16" d="M226.51,92.73s169.67,133.5,226.76,249.56" transform="translate(-114.15 -67.9)" fill="none" stroke="#535461" stroke-miterlimit="10" stroke-width="2"/>
      <path id="Path_17" data-name="Path 17" d="M189.9,153.36S272.27,126.68,317.45,173" transform="translate(-114.15 -67.9)" fill="none" stroke="#535461" stroke-miterlimit="10" stroke-width="2"/>
      <path id="Path_18" data-name="Path 18" d="M227.7,248.3s98.11-69,122.91-42.09" transform="translate(-114.15 -67.9)" fill="none" stroke="#535461" stroke-miterlimit="10" stroke-width="2"/>
      <path id="Path_19" data-name="Path 19" d="M320.29,73.21s-16.91,43.39,4,106.46" transform="translate(-114.15 -67.9)" fill="none" stroke="#535461" stroke-miterlimit="10" stroke-width="2"/>
      <path id="Path_20" data-name="Path 20" d="M444.34,211s-12.81,28.73-71.9,18.68" transform="translate(-114.15 -67.9)" fill="none" stroke="#535461" stroke-miterlimit="10" stroke-width="2"/>
      <path id="Path_21" data-name="Path 21" d="M363.13,317.43s45.47-45.48,31.57-62" transform="translate(-114.15 -67.9)" fill="none" stroke="#535461" stroke-miterlimit="10" stroke-width="2"/>
      <ellipse id="Ellipse_1" data-name="Ellipse 1" cx="485.85" cy="41.08" rx="485.85" ry="41.08" transform="translate(0 682.05)" fill="#0f5211" opacity="0.1"/>
      <path id="Path_22" data-name="Path 22" d="M977.18,467.14c-2.07-6.06-5.06-13.74-7.42-15.55a2.213,2.213,0,0,0-.47-.29H969v-7.49l-5.58.89a53.348,53.348,0,0,1-2-8.29,3.85,3.85,0,0,0,4.19.84c-.09-.15-.17-.31-.25-.47l.25-.11a10.37,10.37,0,0,1-1.35-5.08,18.509,18.509,0,0,1,.77-4.8c1-3.45,2.69-6.67,3.63-10.14a24.645,24.645,0,0,0,.84-6.85,25,25,0,0,0-2.6-11.3,6.6,6.6,0,0,0-2-2.58,25.49,25.49,0,0,0-2.42-1.18,13.07,13.07,0,0,1-3.52-3.51,31.56,31.56,0,0,0-15.25-10.18,8.93,8.93,0,0,0-4.88-.39c-3.75,1-5.11,5.65-8.15,8.09-2.68,2.15-6.36,2.37-9.73,3.09a16.54,16.54,0,0,0-9.06,4.75,9.83,9.83,0,0,0-2.43,6.55,6.59,6.59,0,0,0,2.68,5.86,8.42,8.42,0,0,0,7.11,1,24.18,24.18,0,0,0,18.31,30.4l.65,1.17h0a50.083,50.083,0,0,1,4.54,11.85c-5.14,2.91-10.75,5.64-14.14,5.9a23.811,23.811,0,0,1-.74,3.92,21.62,21.62,0,0,1-4.45,8.75c-4.61,5.18-25.34,44.34-25.34,44.34s-.65,1.56-1.72,4.22c-12.87,1.58-33.88,3.86-39.74,2.69l-23-21.88s-7.44,5.68-6.79,12.58L822.74,510s-21.88,16.7,12.67,27.64l52.57,6.1c-5,15.11-9.68,32.7-8.23,42.27h.43a19.882,19.882,0,0,0,3-.23l-.09,1.7L878,678.17s-1.15,16.7,14.4,24.18c0,0,19,55.85,11.52,62.19,0,0,.89.47,2.39,1.12l-15.63,13.85s-11.52,2.88-17.85,2.3a4.57,4.57,0,0,0-5.05,3.4.76.76,0,0,1-.06.36v1.11a.858.858,0,0,0,.07.37v.14a3.1,3.1,0,0,0,.13.4l.05.12a3.386,3.386,0,0,0,.18.39v.09c.07.13.15.25.23.38l.07.11q.14.2.31.4l.09.1c.12.14.25.27.38.4l.06.05.43.37.09.07c.16.13.34.25.52.37l.12.08c.19.12.39.24.6.35h.09l.65.32h.09l.76.3.16.06.83.27h.14l.91.24h.07l1,.2h.2l1.08.16h.21l1.22.12c2.37.18,5.56.25,9.25.23h0v.59a.7.7,0,0,0,.07.37v.14a3.1,3.1,0,0,0,.13.4l.05.12a3.386,3.386,0,0,0,.18.39v.09c.07.13.15.25.23.38l.07.11q.14.2.31.4l.09.1c.12.14.25.27.38.4l.06.05.43.37.09.07c.16.13.34.25.52.37l.13.08c.19.12.39.24.6.35h.09l.65.32h.09l.76.3.16.06.83.27h.14l.91.24h.07l1,.2h.2l1.08.16h.21l1.22.12c15,1.15,62.76-2.3,62.76-2.3v-.13h0v-.17h0c.47-2.23,2.77-15.19-5.39-24.77.24-.25.48-.52.7-.8,0,0-6.33-10.94-2.88-14.4s-17.27-63.34-17.27-63.34-10.94-17.27-4.61-36.85-.58-40.88-.58-40.88,15.1-4.49,15.41-23.08v-1.73a6.116,6.116,0,0,0,1,.06,4.48,4.48,0,0,0,.64,0s-2.88-10.36.58-17.85,10.94-.58,17.85-31.09c5-22.08,9.4-47.48,11.45-59.84A31.51,31.51,0,0,0,977.18,467.14ZM845.77,531.92l-5.25-5c1.74.72,3.67,1.43,5.83,2.11l19.8,2.3C857.31,532.13,849.1,532.58,845.77,531.92Z" transform="translate(-114.15 -67.9)" fill="url(#linear-gradient)"/>
      <path id="Path_23" data-name="Path 23" d="M895.89,529s-40.73,5.66-49.22,4L824,511.44s-21.5,16.41,12.45,27.15l63.4,7.41Z" transform="translate(-114.15 -67.9)" fill="#fdc2cc"/>
      <path id="Path_24" data-name="Path 24" d="M895.89,529s-40.73,5.66-49.22,4L824,511.44s-21.5,16.41,12.45,27.15l63.4,7.41Z" transform="translate(-114.15 -67.9)" opacity="0.05"/>
      <path id="Path_25" data-name="Path 25" d="M910.6,758.65l-19.8,17.54s-11.31,2.83-17.54,2.26-9.05,9.62,5.66,10.75,61.66-2.26,61.66-2.26,4.53-18.1-9.05-28.29Z" transform="translate(-114.15 -67.9)" fill="#47465a"/>
      <path id="Path_26" data-name="Path 26" d="M910.6,758.65l-19.8,17.54s-11.31,2.83-17.54,2.26-9.05,9.62,5.66,10.75,61.66-2.26,61.66-2.26,4.53-18.1-9.05-28.29Z" transform="translate(-114.15 -67.9)" opacity="0.05"/>
      <path id="Path_27" data-name="Path 27" d="M941.29,779.11a31.2,31.2,0,0,1-.71,6.13s-47,3.39-61.66,2.26c-7.07-.54-10.08-3.18-10.62-5.71-.64,2.9,1.92,6.74,10.62,7.41,14.71,1.13,61.66-2.26,61.66-2.26a32.69,32.69,0,0,0,.71-7.83Z" transform="translate(-114.15 -67.9)" fill="#fff" opacity="0.3"/>
      <path id="Path_28" data-name="Path 28" d="M933.79,437.9s12.45,17.54,7.92,29.42,23.76-12.45,23.76-12.45-9.05-15.84-4.53-32.81Z" transform="translate(-114.15 -67.9)" fill="#fdc2cc"/>
      <path id="Path_29" data-name="Path 29" d="M930.4,765.44,910.6,783s-11.31,2.83-17.54,2.26-9.06,9.6,5.66,10.74,61.66-2.26,61.66-2.26,4.53-18.1-9.05-28.29Z" transform="translate(-114.15 -67.9)" fill="#47465a"/>
      <path id="Path_30" data-name="Path 30" d="M936.06,761.48c-2.95,3.64-7.11,5-11.46,5.25-9.89.47-20.78-5.25-20.78-5.25,7.35-6.22-11.31-61.1-11.31-61.1-15.27-7.35-14.14-23.76-14.14-23.76l5-89.07,1.25-22.37,15.84-9.62,12.49,9.58,11.84,9.09a47.6,47.6,0,0,1,1.48,8.83c1.37,20.79-15.06,25.68-15.06,25.68s6.79,20.93.57,40.16,4.53,36.2,4.53,36.2,20.37,58.83,17,62.23S936.06,761.48,936.06,761.48Z" transform="translate(-114.15 -67.9)" fill="#565171"/>
      <path id="Path_31" data-name="Path 31" d="M936.06,761.48c-2.95,3.64-7.11,5-11.46,5.25-9.89.47-20.78-5.25-20.78-5.25,7.35-6.22-11.31-61.1-11.31-61.1-15.27-7.35-14.14-23.76-14.14-23.76l5-89.07,1.25-22.37,15.84-9.62,12.49,9.58,11.84,9.09a47.6,47.6,0,0,1,1.48,8.83c1.37,20.79-15.06,25.68-15.06,25.68s6.79,20.93.57,40.16,4.53,36.2,4.53,36.2,20.37,58.83,17,62.23S936.06,761.48,936.06,761.48Z" transform="translate(-114.15 -67.9)" opacity="0.05"/>
      <path id="Path_32" data-name="Path 32" d="M955.86,768.27c-9.62,11.88-32.24,0-32.24,0a3.6,3.6,0,0,0,1-1.54c4.15-11.28-14-65.21-14-65.21-15.27-7.35-17-24.89-17-24.89l-4-90.65-.52-11.74,23.8-9.09,7.31-2.79L944.54,581a44.125,44.125,0,0,1,1.56,11.83c-.3,18.29-15.1,22.7-15.1,22.7s6.79,20.93.57,40.16,4.53,36.2,4.53,36.2,20.37,58.83,17,62.23S955.86,768.27,955.86,768.27Z" transform="translate(-114.15 -67.9)" fill="#565171"/>
      <path id="Path_33" data-name="Path 33" d="M946.1,592.85c-4.89-.7-14.79-6.59-19.88-9.79l-3.18-2s-5.09-14.14-18.67-3.39A50.821,50.821,0,0,1,889.62,586a34.51,34.51,0,0,1-6.3,1.58l1.25-22.37,15.84-9.62,12.49,9.58,7.31-2.79L944.54,581a44.125,44.125,0,0,1,1.56,11.85Z" transform="translate(-114.15 -67.9)" opacity="0.1"/>
      <path id="Path_34" data-name="Path 34" d="M976.72,484.33c-2,12.14-6.34,37.09-11.25,58.79-6.79,30-14.14,23.19-17.54,30.55s-.57,17.54-.57,17.54c-5.66.57-24.33-11.88-24.33-11.88s-5.09-14.14-18.67-3.39-24.33,10.18-24.33,10.18c-2.83-18.67,18.1-68.45,18.1-68.45S918.52,479.2,923,474.11a21.24,21.24,0,0,0,4.37-8.6,23.391,23.391,0,0,0,.72-3.85c7.35-.57,25.46-13,25.46-13l14.14-2.26v7.35a2.169,2.169,0,0,1,.46.28c2.33,1.78,5.26,9.33,7.29,15.28a31,31,0,0,1,1.28,15.02Z" transform="translate(-114.15 -67.9)" fill="#f68080"/>
      <path id="Path_35" data-name="Path 35" d="M965.47,461.1s-14.71-11.88-36.77,26.59-27.15,32.24-27.15,32.24,4.53,17,2.26,20.37c0,0,15.27-1.13,20.93,0s40.73-43,40.73-43S983.58,472.41,965.47,461.1Z" transform="translate(-114.15 -67.9)" opacity="0.1"/>
      <path id="Path_36" data-name="Path 36" d="M964.91,458.83S950.2,447,928.14,485.42,901,517.67,901,517.67,918.52,536.9,924.18,538s40.73-43,40.73-43S983,470.15,964.91,458.83Z" transform="translate(-114.15 -67.9)" opacity="0.1"/>
      <path id="Path_37" data-name="Path 37" d="M903.29,536.62c.23-4.19-1.35-11.56-2.26-15.38,3.44-.45,5.61-.75,5.61-.75l4,17Z" transform="translate(-114.15 -67.9)" opacity="0.1"/>
      <path id="Path_38" data-name="Path 38" d="M961.51,423.19,934.36,439a58,58,0,0,1,3.16,5.18,23.865,23.865,0,0,0,4.76.48c7.25,0,10.63-7.61,15-12.73C957,427.85,960.3,427.75,961.51,423.19Z" transform="translate(-114.15 -67.9)" opacity="0.1"/>
      <circle id="Ellipse_2" data-name="Ellipse 2" cx="23.76" cy="23.76" r="23.76" transform="translate(803.81 328.14)" fill="#fdc2cc"/>
      <path id="Path_39" data-name="Path 39" d="M911.66,400.58a16.24,16.24,0,0,1,8.9-4.67c3.3-.71,6.92-.93,9.56-3,3-2.39,4.32-6.93,8-7.94a8.77,8.77,0,0,1,4.79.38,31,31,0,0,1,15,10,12.839,12.839,0,0,0,3.45,3.45,25,25,0,0,1,2.38,1.16,6.48,6.48,0,0,1,1.94,2.53,24.59,24.59,0,0,1,1.72,17.27c-.92,3.41-2.58,6.57-3.56,10s-1.23,7.24.57,10.27c-1.74.89-3.94-.23-5-1.85s-1.42-3.62-2-5.49a21,21,0,0,0-6.13-9.53c-1.78-1.58-5-2.64-6.21-.6-.48.79-.45,1.79-.86,2.61-.81,1.6-3.15,1.92-4.7,1a7.21,7.21,0,0,1-2.94-4.36c-2.33-7.88-6.3-12.84-14.73-9.47-3.14,1.26-6.84,2.11-9.86-.05C908,409.44,908.81,403.8,911.66,400.58Z" transform="translate(-114.15 -67.9)" opacity="0.1"/>
      <path id="Path_40" data-name="Path 40" d="M911.66,400a16.24,16.24,0,0,1,8.9-4.67c3.3-.71,6.92-.93,9.56-3,3-2.39,4.32-6.93,8-7.94a8.77,8.77,0,0,1,4.79.38,31,31,0,0,1,15,10,12.839,12.839,0,0,0,3.45,3.45,24.989,24.989,0,0,1,2.38,1.16,6.48,6.48,0,0,1,1.94,2.53,24.59,24.59,0,0,1,1.72,17.27c-.92,3.41-2.58,6.57-3.56,10s-1.23,7.24.57,10.27c-1.74.89-3.94-.23-5-1.85s-1.42-3.62-2-5.49a21,21,0,0,0-6.13-9.53c-1.78-1.58-5-2.64-6.21-.6-.48.79-.45,1.79-.86,2.61-.81,1.6-3.15,1.92-4.7,1a7.21,7.21,0,0,1-2.94-4.36c-2.33-7.88-6.3-12.84-14.73-9.47-3.14,1.26-6.84,2.11-9.86-.05C908,408.87,908.81,403.24,911.66,400Z" transform="translate(-114.15 -67.9)" fill="#b96b6b"/>
      <path id="Path_41" data-name="Path 41" d="M968.2,454H956.7s-22.63,11.31-23.19,10.75c-.38-.38-3.88.27-6.1.74a23.4,23.4,0,0,0,.72-3.85c7.35-.57,25.46-13,25.46-13l14.14-2.26v7.35a2.169,2.169,0,0,1,.47.27Z" transform="translate(-114.15 -67.9)" opacity="0.05"/>
      <path id="Path_42" data-name="Path 42" d="M961.09,785.9a31.209,31.209,0,0,1-.71,6.13s-47,3.39-61.66,2.26c-7.07-.54-10.08-3.18-10.62-5.71-.64,2.9,1.92,6.74,10.62,7.41,14.71,1.13,61.66-2.26,61.66-2.26a32.69,32.69,0,0,0,.71-7.83Z" transform="translate(-114.15 -67.9)" fill="#fff" opacity="0.3"/>
      <g id="Group_3" data-name="Group 3" opacity="0.05">
        <path id="Path_43" data-name="Path 43" d="M899,575.37c-7.63,6-14.38,8.51-18.81,9.51a8.4,8.4,0,0,0,.14,1.24s10.75.57,24.33-10.18a18.231,18.231,0,0,1,7.27-3.8C909,570.73,904.74,570.82,899,575.37Z" transform="translate(-114.15 -67.9)"/>
        <path id="Path_44" data-name="Path 44" d="M975.77,469.3c-2-6-5-13.5-7.29-15.28a2.173,2.173,0,0,0-.46-.28s-4.68.16-4.53.28c2.33,1.78,4.59,8.76,6.62,14.71a31,31,0,0,1,1.23,15c-2,12.14-6.34,37.09-11.25,58.79-6.79,30-14.14,23.19-17.54,30.55-2.78,6-1.39,13.94-.79,16.61,2.42,1,4.52,1.63,5.88,1.49,0,0-2.83-10.18.57-17.54s10.75-.57,17.54-30.55c4.91-21.69,9.23-46.65,11.25-58.79a31,31,0,0,0-1.23-14.99Z" transform="translate(-114.15 -67.9)"/>
      </g>
      <path id="Path_45" data-name="Path 45" d="M398.36,783.8s-13,.9-21.1-13a46.721,46.721,0,0,0-5.54-7.87,26.6,26.6,0,0,1-3.89-14.13c.45-10.32-10.32-66.88-10.32-66.88s1.35-21.55-9.43-35c-7.09-8.86-17.29-34.26-23.44-50.58a3.39,3.39,0,0,0,1.45.76l-.25-1.41.25.06-3.14-17.51a79.679,79.679,0,0,1-11.6-17.59l.72-.15,9.53-2s15.49-22,16.44-32.84l1.26.06h1.78c19.71-.43,42.91,2.25,42.91,2.25h0c0-.07-.11-.35-.23-.79h0a53.862,53.862,0,0,1-1.39-6.63l.89-.06,8.82-.59s30.52-34.11,19.3-40.4-22.89,28.28-22.89,28.28l-3.77.69-1,.19a4.355,4.355,0,0,1,.32-.43c.12-.14-49.83-2.24-57.46-14.36,0,0-22-17.51-22.89-29.18a13.163,13.163,0,0,0-7.91-11.2,17.26,17.26,0,0,0-8.72-1.63l-10.3.71.73,1.3h-.29a34.646,34.646,0,0,1-1.62-4.56h.21c-.07-.32-.14-.64-.2-1a24.24,24.24,0,0,0,17.85-29.85,9.7,9.7,0,0,0,3-.08c3.78-.78,6.47-4.62,6.57-8.48V409a13,13,0,0,0-5-10c-2.06-1.71-4.51-2.93-6.38-4.83-2.22-2.27-3.43-5.31-5.16-8a23.69,23.69,0,0,0-12.16-9.47c-3.72-1.26-8.27-1.4-11.12,1.3-1.47,1.39-2.32,3.38-4,4.55-2.37,1.69-5.59,1.19-8.49,1.53-5.26.62-9.88,4.37-12.2,9.14a21,21,0,0,0-2,9.65,25.79,25.79,0,0,0,.81,6.78c.56,2.21,1.39,4.34,2,6.53,1.26,4.56,1.55,9.36,3,13.87a17.45,17.45,0,0,0,5.62,8.52l-.43,1.86c-.28.06-7.27,1.56-12.11,12.12-3.82,8.32-16.74,16.92-22.42,20.39a9.35,9.35,0,0,0-4.23,5.87,30.531,30.531,0,0,0-.72,7.46c-.1,5.41,1,12.89,5.38,22.38,9.88,21.55,17.06,31,17.06,31s.55,6.6.58,13.56c0,5.18-.38,10.34-1.48,12.92-.93,2.18-1.22,7.75-1.2,14.1,0,12.19,1.2,28.1,1.2,28.1s3.43.65,8.75,1.43l3.31,58.19a28,28,0,0,1-6.33,19.44,43,43,0,0,1-8,7.58c-9.43,6.73-29.63,77.66-29.63,77.66s1,.06,2.62.19l-6.21,17.32s24.8,19,39.9,13.81a14.618,14.618,0,0,1,5-.71c3,0,9.35-2.35,5.8-5.46-6.45-5.64-14.18-14.18-19.35-20.12a10.3,10.3,0,0,1,1.4.82v-.14l.21.14s.05-.7.16-1.83l-.22-.07c.46-4.67,1.9-16.41,4.77-17.85,3.59-1.8,30.07-54.31,30.07-54.31l26.48-68.23s21.1,36.36,39.05,42.64V694s9.88,44.89,13.47,49.83,0,24.69,0,24.69a12.3,12.3,0,0,0,2.42,2.13l-2.87,16.27s20.65-.9,55.66,9.88C396.11,796.82,409.58,791,398.36,783.8ZM315.76,549l-4.37,1.09-.86.22c-.09-.54-.15-.86-.15-.86a8.92,8.92,0,0,1-3.17.77,58.468,58.468,0,0,1-2.66-15.14s-2.54-10.37-2.68-18.75c.05-3.27.54-6.12,1.78-7.73l1.46.12,1,1,.07.07.52.47h0l.54.49.09.08.59.51.1.09.6.51.06.05.67.55.15.12.71.57h.06l.7.55.16.12.77.59.16.12.74.54.13.09.84.6.2.14.88.61.08.05.86.57.21.14.93.59.2.12.87.53.16.1,1,.58.24.14,1,.58h.08l1,.53.25.13,1.06.53.22.1,1,.46.19.09,1.11.48.27.11,1.16.46h0C319.44,530.67,315.76,549,315.76,549Z" transform="translate(-114.15 -67.9)" fill="url(#linear-gradient-2)"/>
      <path id="Path_46" data-name="Path 46" d="M205.05,762.12l-8.33,23.23s22.81,17.49,37.63,13.87a41.412,41.412,0,0,1,6.8-1.1c3.07-.23,8.35-2.46,5.09-5.31-10.52-9.2-24.54-26.29-24.54-26.29Z" transform="translate(-114.15 -67.9)" fill="#4f4d59"/>
      <path id="Path_47" data-name="Path 47" d="M343.53,759.92l-3.94,22.35s20.16-.88,54.34,9.64c0,0,13.15-5.7,2.19-12.71,0,0-12.71.88-20.6-12.71s-12.71-11.83-12.71-11.83Z" transform="translate(-114.15 -67.9)" fill="#4f4d59"/>
      <path id="Path_48" data-name="Path 48" d="M239.23,597.78l3.86,68a28.13,28.13,0,0,1-6.71,19.89,41.233,41.233,0,0,1-7.24,6.75c-9.2,6.57-28.92,75.81-28.92,75.81s22.35,1.31,28.48,5.7c0,0,1.31-17.53,4.82-19.28s29.36-53,29.36-53L288.75,635s20.6,35.5,38.13,41.63v14.9s9.64,43.82,13.15,48.64,0,24.1,0,24.1,10.08,12.71,33.3-.88c0,0-7.45-8.33-7-18.41s-10.08-65.29-10.08-65.29,1.31-21-9.2-34.18S319,582,319,582l-12.06-25.95Z" transform="translate(-114.15 -67.9)" fill="#787c9c"/>
      <g id="Group_4" data-name="Group 4" opacity="0.1">
        <path id="Path_49" data-name="Path 49" d="M204.39,768.25s19.72-69.24,28.92-75.81a41.748,41.748,0,0,0,7.61-7.19,27.81,27.81,0,0,0,6.33-19.44l-3.86-68L308,557.95l-.88-1.89-67.69,41.72,3.86,68A27.81,27.81,0,0,1,237,685.24a41.75,41.75,0,0,1-7.61,7.19c-9.2,6.57-28.92,75.81-28.92,75.81s22.35,1.31,28.48,5.7c0,0,.05-.68.16-1.79C220.47,769.2,204.39,768.25,204.39,768.25Z" transform="translate(-114.15 -67.9)"/>
        <path id="Path_50" data-name="Path 50" d="M344.19,764.31s3.51-19.28,0-24.1S331,691.56,331,691.56v-14.9C313.51,670.53,292.91,635,292.91,635l-1.53,4c5.94,9.42,21.79,32.81,35.71,37.68v14.9s9.64,43.82,13.15,48.64,0,24.1,0,24.1,4.89,6.15,15.69,5.32C347.88,769,344.19,764.31,344.19,764.31Z" transform="translate(-114.15 -67.9)"/>
      </g>
      <path id="Path_51" data-name="Path 51" d="M390,521.53l-8.61.57-4.54.3v-11l6-1.08,3.69-.67s11.39-33.74,22.35-27.61S390,521.53,390,521.53Z" transform="translate(-114.15 -67.9)" fill="#714b4f"/>
      <path id="Path_52" data-name="Path 52" d="M251.94,431.26s-5.7,21.91-7.45,35.5,40.75,2.63,40.75,2.63-16.21-19.72-7-30.24Z" transform="translate(-114.15 -67.9)" fill="#714b4f"/>
      <path id="Path_53" data-name="Path 53" d="M298,522.41l.88,8.33-13.58-.88L271.66,518l-13.58-38.1-8.76-13.58L242.74,458l2.63-10.08s1.2,1,3.23,2.6c6.67,5.11,22.33,15.72,33.77,12.79a13.629,13.629,0,0,0,1.56-.49L301,492.17Z" transform="translate(-114.15 -67.9)" fill="#e6e6f0"/>
      <path id="Path_54" data-name="Path 54" d="M248.87,445.28s-7,1.31-11.83,11.83c-3.71,8.09-16.22,16.43-21.81,19.86a9.35,9.35,0,0,0-4.24,5.91c-1.13,5-1.56,14.3,4.58,27.7,9.64,21,16.65,30.24,16.65,30.24s1.75,21-.88,27.17,0,39.88,0,39.88,46,8.76,61.35,0,13.15-42.51,13.15-42.51S320.3,596,325.56,596.91l-3.07-17.09s-17.09-18.41-18-42.07c0,0-5.26-21.47-.88-27.17,0,0,74.06,6.14,78.44.88,0,0-48.64-2.19-56.09-14,0,0-21.47-17.09-22.35-28.48a12.6,12.6,0,0,0-6.57-10.32,17.16,17.16,0,0,0-9.82-2.19l-9.9.68s17.09,30.24,16.21,34.18.88,35.93.88,35.93S274.73,484.72,266,479.9s-18.84-24.61-18.84-24.61l1.75-10" transform="translate(-114.15 -67.9)" opacity="0.1"/>
      <path id="Path_55" data-name="Path 55" d="M298,522.41l.88,8.33-13.58-.88L271.66,518l-13.58-38.1-8.76-13.58L242.74,458l2.63-10.08s1.2,1,3.23,2.6L248,454s10.08,19.79,18.84,24.61,28.48,47.33,28.48,47.33-1.75-32-.88-35.93c.6-2.68-7.08-17.45-12.07-26.68a13.629,13.629,0,0,0,1.56-.49L301,492.17Z" transform="translate(-114.15 -67.9)" opacity="0.1"/>
      <path id="Path_56" data-name="Path 56" d="M381.37,522.11l-4.54.3v-11l6-1.08C380.72,513.12,380.79,518,381.37,522.11Z" transform="translate(-114.15 -67.9)" opacity="0.1"/>
      <path id="Path_57" data-name="Path 57" d="M248.87,444s-7,1.31-11.83,11.83c-3.71,8.09-16.22,16.43-21.81,19.86a9.35,9.35,0,0,0-4.24,5.91c-1.13,5-1.56,14.3,4.58,27.7,9.64,21,16.65,30.24,16.65,30.24s1.75,21-.88,27.17,0,39.88,0,39.88,46,8.76,61.35,0S305.84,564,305.84,564s14.46,30.68,19.72,31.55l-3.07-17.09s-17.09-18.41-18-42.07c0,0-5.26-21.47-.88-27.17,0,0,17.09,18.41,36.37,18s42.07,2.19,42.07,2.19-4.38-14,0-19.28c0,0-48.64-2.19-56.09-14,0,0-21.47-17.09-22.35-28.48a12.6,12.6,0,0,0-6.57-10.32,17.16,17.16,0,0,0-9.82-2.19l-9.9.68S294.45,486,293.57,490s.88,35.93.88,35.93S274.73,483.41,266,478.59,247.12,454,247.12,454l1.75-10" transform="translate(-114.15 -67.9)" fill="#787c9c"/>
      <path id="Path_58" data-name="Path 58" d="M239.23,490s10.52,35.5,16.65,39.88,43.38,26.73,54.34,21.47c0,0,2.63,13.15-1.31,16.21,0,0-40.86-1.6-41.19-1.75,0,0-26.73-3.51-31.11-16.65s-9.64-35.5-9.64-35.5Z" transform="translate(-114.15 -67.9)" opacity="0.1"/>
      <ellipse id="Ellipse_3" data-name="Ellipse 3" cx="1.53" cy="2.19" rx="1.53" ry="2.19" transform="translate(179.65 457.8)" fill="#ba7855"/>
      <ellipse id="Ellipse_4" data-name="Ellipse 4" cx="1.53" cy="2.19" rx="1.53" ry="2.19" transform="translate(184.03 473.14)" fill="#ba7855"/>
      <g id="Group_5" data-name="Group 5" opacity="0.1">
        <path id="Path_59" data-name="Path 59" d="M234.41,606.11s-2.63-33.74,0-39.88.88-27.17.88-27.17-7-9.2-16.65-30.24c-6.14-13.4-5.7-22.7-4.58-27.7a9.35,9.35,0,0,1,4.25-5.91c5.59-3.43,18.1-11.77,21.8-19.86,2.72-5.93,6.13-8.94,8.6-10.43l.17-1s-7,1.31-11.83,11.83c-3.71,8.09-16.22,16.43-21.8,19.86a9.35,9.35,0,0,0-4.25,5.91c-1.13,5-1.56,14.3,4.58,27.7,9.64,21,16.65,30.24,16.65,30.24s1.75,21-.88,27.17,0,39.88,0,39.88,32.87,6.26,52.31,2.91C264,611.75,234.41,606.11,234.41,606.11Z" transform="translate(-114.15 -67.9)"/>
        <path id="Path_60" data-name="Path 60" d="M293.57,490c-.6,2.7,0,18.58.49,28.3,2.12,4.33,3.45,7.19,3.45,7.19s-1.75-32-.88-35.93c.83-3.75-14.56-31.25-16.09-34l-3.19.22S294.45,486,293.57,490Z" transform="translate(-114.15 -67.9)"/>
        <path id="Path_61" data-name="Path 61" d="M343.09,526.79c-19.28.44-36.37-18-36.37-18a7,7,0,0,0-1.11,2.38c5,4.71,19,16.38,34.41,16,19.28-.44,42.07,2.19,42.07,2.19s-.09-.29-.23-.79a348.844,348.844,0,0,0-38.77-1.78Z" transform="translate(-114.15 -67.9)"/>
        <path id="Path_62" data-name="Path 62" d="M308.91,563.6s.18,2.74.08,6.85c4.56,9,12.86,24.52,16.57,25.14l-.65-3.6C318.51,584,308.91,563.6,308.91,563.6Z" transform="translate(-114.15 -67.9)"/>
      </g>
      <path id="Path_63" data-name="Path 63" d="M321.18,559.22l-9.31,2-7.34,1.55,3.94-11,2.74-.69,4.27-1.06s6.14-30.68,18.41-28.48S321.18,559.22,321.18,559.22Z" transform="translate(-114.15 -67.9)" fill="#714b4f"/>
      <path id="Path_64" data-name="Path 64" d="M311.87,561.18l-7.34,1.55,3.94-11,2.74-.69A43.768,43.768,0,0,1,311.87,561.18Z" transform="translate(-114.15 -67.9)" opacity="0.1"/>
      <path id="Path_65" data-name="Path 65" d="M239.23,489.1s10.52,35.5,16.65,39.88,43.38,26.73,54.34,21.47c0,0,2.63,13.15-1.31,16.21,0,0-40.86-1.6-41.19-1.75,0,0-26.73-3.51-31.11-16.65s-9.64-35.5-9.64-35.5Z" transform="translate(-114.15 -67.9)" fill="#787c9c"/>
      <path id="Path_66" data-name="Path 66" d="M252.38,432.14s-.89,3.43-2.08,8.42a23.65,23.65,0,0,0,26.12,12c-1.05-4.5-.82-9,2.26-12.57Z" transform="translate(-114.15 -67.9)" opacity="0.1"/>
      <circle id="Ellipse_5" data-name="Ellipse 5" cx="23.66" cy="23.66" r="23.66" transform="translate(132.98 337.07)" fill="#714b4f"/>
      <path id="Path_67" data-name="Path 67" d="M291.33,422.12a12.669,12.669,0,0,0,5.28.32c3.69-.76,6.32-4.51,6.41-8.28a12.72,12.72,0,0,0-4.88-9.77c-2-1.67-4.4-2.86-6.23-4.72-2.17-2.21-3.35-5.19-5-7.79A23.13,23.13,0,0,0,275,382.64c-3.63-1.23-8.07-1.37-10.86,1.27-1.43,1.35-2.27,3.3-3.87,4.44-2.32,1.65-5.46,1.16-8.29,1.49a15.8,15.8,0,0,0-11.91,8.92,22.32,22.32,0,0,0-1.16,15.16c.55,2.15,1.35,4.24,1.94,6.38,1.23,4.46,1.52,9.14,2.94,13.54s4.35,8.7,8.78,10a27.76,27.76,0,0,1,2.82-14.3,4.1,4.1,0,0,1,2-2.22,4.849,4.849,0,0,1,2.41,0,24,24,0,0,0,16-3.24c1.68-1,4.3-4.51,6.1-4.86C284.2,418.81,288.93,421.58,291.33,422.12Z" transform="translate(-114.15 -67.9)" opacity="0.1"/>
      <path id="Path_68" data-name="Path 68" d="M291.33,421.24a12.67,12.67,0,0,0,5.28.32c3.69-.76,6.32-4.51,6.41-8.28a12.72,12.72,0,0,0-4.88-9.77c-2-1.67-4.4-2.86-6.23-4.72-2.17-2.21-3.35-5.19-5-7.79A23.13,23.13,0,0,0,275,381.76c-3.63-1.23-8.07-1.37-10.86,1.27-1.43,1.35-2.27,3.3-3.87,4.44-2.32,1.65-5.46,1.16-8.29,1.49a15.8,15.8,0,0,0-11.91,8.92A22.32,22.32,0,0,0,238.91,413c.55,2.15,1.35,4.24,1.94,6.38,1.23,4.46,1.52,9.14,2.94,13.54s4.35,8.7,8.78,10a27.76,27.76,0,0,1,2.82-14.3,4.1,4.1,0,0,1,2-2.22,4.85,4.85,0,0,1,2.41,0,24,24,0,0,0,16-3.24c1.68-1,4.3-4.51,6.1-4.86C284.2,417.93,288.93,420.71,291.33,421.24Z" transform="translate(-114.15 -67.9)" fill="#503f43"/>
      <path id="Path_69" data-name="Path 69" d="M302.2,791.48a11.67,11.67,0,0,0,3.83-5.78c.5-2.3-.48-5.05-2.68-5.89-2.46-.94-5.09.76-7.08,2.49s-4.28,3.69-6.89,3.32a10.48,10.48,0,0,0,3.24-9.81,4.1,4.1,0,0,0-.9-2c-1.37-1.46-3.84-.83-5.48.32-5.2,3.66-6.65,10.72-6.68,17.08-.52-2.29-.08-4.68-.1-7s-.66-5-2.64-6.22a8,8,0,0,0-4-.95c-2.34-.09-4.94.15-6.54,1.86-2,2.12-1.47,5.69.26,8s4.35,3.8,6.77,5.42a15,15,0,0,1,4.84,4.61,4.57,4.57,0,0,1,.36.82h14.65a40.825,40.825,0,0,0,9.04-6.27Z" transform="translate(-114.15 -67.9)" fill="#0f5211"/>
      <path id="Path_70" data-name="Path 70" d="M1014.2,779.48a11.67,11.67,0,0,0,3.83-5.78c.5-2.3-.48-5.05-2.68-5.89-2.46-.94-5.09.76-7.08,2.49s-4.28,3.69-6.89,3.32a10.48,10.48,0,0,0,3.24-9.81,4.1,4.1,0,0,0-.9-2c-1.37-1.46-3.84-.83-5.48.32-5.2,3.66-6.65,10.72-6.68,17.08-.52-2.29-.08-4.68-.1-7s-.66-5-2.64-6.22a8,8,0,0,0-4-.95c-2.34-.09-4.94.15-6.54,1.86-2,2.12-1.47,5.69.26,8s4.35,3.8,6.77,5.42a15,15,0,0,1,4.84,4.61,4.569,4.569,0,0,1,.36.82h14.65A40.833,40.833,0,0,0,1014.2,779.48Z" transform="translate(-114.15 -67.9)" fill="#0f5211"/>
      <path id="Path_71" data-name="Path 71" d="M910.6,537.46l-7.31-.85-56-6.51C813.3,519.36,834.8,503,834.8,503l22.63,21.5c6.53,1.31,32.13-1.74,43.6-3.21,3.44-.45,5.61-.75,5.61-.75Z" transform="translate(-114.15 -67.9)" fill="#fdc2cc"/>
      <path id="Path_72" data-name="Path 72" d="M965.47,460s-14.71-11.88-36.77,26.59-27.15,32.24-27.15,32.24,4.53,17,2.26,20.37c0,0,15.27-1.13,20.93,0s40.73-43,40.73-43S983.58,471.28,965.47,460Z" transform="translate(-114.15 -67.9)" fill="#f68080"/>
    </g>
    <g id="Group_30" data-name="Group 30" transform="translate(661.78 334.147)">
      <g id="Group_23" data-name="Group 23" transform="translate(280.917 0.023)" opacity="0.5">
        <rect id="Rectangle_13" data-name="Rectangle 13" width="383.187" height="277.332" transform="translate(0 378.899) rotate(-81.42)" fill="url(#linear-gradient-3)"/>
      </g>
      <rect id="Rectangle_14" data-name="Rectangle 14" width="374.716" height="270.276" transform="translate(285.253 373.865) rotate(-81.42)" fill="#f5f5f5"/>
      <rect id="Rectangle_15" data-name="Rectangle 15" width="195.069" height="11.824" transform="translate(352.501 169.397) rotate(8.58)" fill="#e0e0e0"/>
      <rect id="Rectangle_16" data-name="Rectangle 16" width="195.069" height="11.824" transform="translate(348.092 198.62) rotate(8.58)" fill="#e0e0e0"/>
      <rect id="Rectangle_17" data-name="Rectangle 17" width="100.492" height="11.824" transform="translate(460.126 89.984) rotate(8.58)" fill="#e0e0e0"/>
      <rect id="Rectangle_18" data-name="Rectangle 18" width="82.76" height="11.824" transform="translate(464.487 120.536) rotate(8.58)" fill="#0f5211"/>
      <rect id="Rectangle_19" data-name="Rectangle 19" width="171.429" height="11.824" transform="translate(343.678 227.846) rotate(8.58)" fill="#e0e0e0"/>
      <rect id="Rectangle_20" data-name="Rectangle 20" width="147.781" height="11.824" transform="translate(339.265 257.073) rotate(8.58)" fill="#e0e0e0"/>
      <rect id="Rectangle_21" data-name="Rectangle 21" width="130.048" height="11.824" transform="translate(334.856 286.298) rotate(8.58)" fill="#e0e0e0"/>
      <rect id="Rectangle_22" data-name="Rectangle 22" width="165.513" height="11.824" transform="translate(330.448 315.524) rotate(8.58)" fill="#e0e0e0"/>
      <rect id="Rectangle_23" data-name="Rectangle 23" width="65.021" height="11.824" transform="translate(326.044 344.747) rotate(8.58)" fill="#0f5211"/>
      <g id="Group_24" data-name="Group 24" transform="translate(362.821 60.725)" opacity="0.5">
        <path id="Path_73" data-name="Path 73" d="M759.378,208.1a39.455,39.455,0,1,0-65.665,23.214v.175a13.5,13.5,0,0,0,4,3.5l.077-.168c1.589,1.841,8.9,5.509,17.746,6.818h.2a36.1,36.1,0,0,0,17.6-1.309s.063-.1.168-.28a14.057,14.057,0,0,0,4.06-1.967l.126-.434A39.413,39.413,0,0,0,759.378,208.1Z" transform="translate(-680.908 -162.764)" fill="url(#linear-gradient-4)"/>
      </g>
      <circle id="Ellipse_16" data-name="Ellipse 16" cx="38.272" cy="38.272" r="38.272" transform="translate(358.549 130.875) rotate(-81.42)" fill="#f5f5f5"/>
      <path id="Path_74" data-name="Path 74" d="M708.15,235.079s-9.1-.623-9.22,16.164a13.1,13.1,0,0,0,3.878,3.381l7.659-16.4Z" transform="translate(-323.492 -123.729)" fill="#fda57d"/>
      <path id="Path_75" data-name="Path 75" d="M752.553,241.39s8.9,2.1,4.046,18.166a13.1,13.1,0,0,1-4.7,2.1l-2.485-17.928Z" transform="translate(-338.634 -125.623)" fill="#fda57d"/>
      <path id="Path_76" data-name="Path 76" d="M714.888,196.72s-6.175,11.838-8.338,10.312c0,0,19.643,22.913,42.528,6.412a60.134,60.134,0,0,0-6.874-12.6Z" transform="translate(-325.778 -112.224)" fill="#333"/>
      <circle id="Ellipse_17" data-name="Ellipse 17" cx="16.962" cy="16.962" r="16.962" transform="translate(384.495 99.765) rotate(-81.42)" fill="#333"/>
      <path id="Path_77" data-name="Path 77" d="M738.607,239.46l-29.262-4.41-4.494,11.292s-2.422,5.173-.784,7.862,19.454,10.914,34.3,5.6a15.437,15.437,0,0,0,1.862-9.7c-.735-5.7-.329-.448-.329-.448Z" transform="translate(-324.862 -123.721)" opacity="0.1"/>
      <path id="Path_78" data-name="Path 78" d="M739.17,239.55l-29.262-4.41-4.487,11.285s-2.422,5.173-.784,7.862,19.454,10.914,34.3,5.6a15.436,15.436,0,0,0,1.862-9.7c-.735-5.7-.329-.448-.329-.448Z" transform="translate(-325.033 -123.748)" opacity="0.1"/>
      <path id="Path_79" data-name="Path 79" d="M738.857,239.5l-29.262-4.41L705.1,246.382s-2.422,5.173-.784,7.862,19.454,10.914,34.3,5.6a15.436,15.436,0,0,0,1.862-9.7c-.735-5.7-.329-.448-.329-.448Z" transform="translate(-324.937 -123.733)" fill="#fdd835"/>
      <path id="Path_80" data-name="Path 80" d="M.007,0H11.845V10.683a4.711,4.711,0,0,1-4.711,4.711H4.711A4.711,4.711,0,0,1,0,10.683V0Z" transform="translate(395.083 103.029) rotate(8.58)" opacity="0.1"/>
      <path id="Path_81" data-name="Path 81" d="M0,0H11.838V10.683a4.711,4.711,0,0,1-4.711,4.711H4.711A4.711,4.711,0,0,1,0,10.683Z" transform="translate(395.147 102.596) rotate(8.58)" fill="#fda57d"/>
      <path id="Path_82" data-name="Path 82" d="M726.77,224.34a17.032,17.032,0,0,0,11.7,1.8l.217-1.435-11.7-1.764Z" transform="translate(-331.843 -120.089)" opacity="0.1"/>
      <circle id="Ellipse_18" data-name="Ellipse 18" cx="16.962" cy="16.962" r="16.962" transform="translate(383.946 103.403) rotate(-81.42)" fill="#fda57d"/>
      <path id="Path_83" data-name="Path 83" d="M717.07,186.706l31.992,4.823s-.784-13.3-13-14.33S717.07,186.706,717.07,186.706Z" transform="translate(-328.933 -106.348)" fill="#333"/>
      <ellipse id="Ellipse_19" data-name="Ellipse 19" cx="2.961" cy="1.575" rx="2.961" ry="1.575" transform="translate(384.927 88.654) rotate(-81.42)" fill="#fda57d"/>
      <ellipse id="Ellipse_20" data-name="Ellipse 20" cx="2.961" cy="1.575" rx="2.961" ry="1.575" transform="translate(417.7 93.602) rotate(-81.42)" fill="#fda57d"/>
      <path id="Path_84" data-name="Path 84" d="M717,187.326l31.992,4.823s-.784-13.3-13-14.33S717,187.326,717,187.326Z" transform="translate(-328.912 -106.534)" opacity="0.1"/>
      <g id="Group_25" data-name="Group 25" transform="translate(0.328 54.464)" opacity="0.5">
        <rect id="Rectangle_24" data-name="Rectangle 24" width="278.122" height="384.278" transform="matrix(0.987, -0.16, 0.16, 0.987, 0, 44.373)" fill="url(#linear-gradient-5)"/>
      </g>
      <rect id="Rectangle_25" data-name="Rectangle 25" width="270.276" height="374.716" transform="translate(4.044 100.403) rotate(-9.31)" fill="#f5f5f5"/>
      <rect id="Rectangle_26" data-name="Rectangle 26" width="195.069" height="11.824" transform="translate(65.897 254.911) rotate(-9.31)" fill="#e0e0e0"/>
      <rect id="Rectangle_27" data-name="Rectangle 27" width="195.069" height="11.824" transform="translate(70.678 284.079) rotate(-9.31)" fill="#e0e0e0"/>
      <rect id="Rectangle_28" data-name="Rectangle 28" width="100.492" height="11.824" transform="translate(143.934 146.277) rotate(-9.31)" fill="#e0e0e0"/>
      <rect id="Rectangle_29" data-name="Rectangle 29" width="82.76" height="11.824" transform="translate(157.461 174.012) rotate(-9.31)" fill="#0f5211"/>
      <rect id="Rectangle_30" data-name="Rectangle 30" width="171.429" height="11.824" transform="translate(75.46 313.247) rotate(-9.31)" fill="#e0e0e0"/>
      <rect id="Rectangle_31" data-name="Rectangle 31" width="147.781" height="11.824" transform="translate(80.24 342.407) rotate(-9.31)" fill="#e0e0e0"/>
      <rect id="Rectangle_32" data-name="Rectangle 32" width="130.048" height="11.824" transform="translate(85.022 371.58) rotate(-9.31)" fill="#e0e0e0"/>
      <rect id="Rectangle_33" data-name="Rectangle 33" width="165.513" height="11.824" transform="translate(89.804 400.741) rotate(-9.31)" fill="#e0e0e0"/>
      <rect id="Rectangle_34" data-name="Rectangle 34" width="65.021" height="11.824" transform="translate(94.591 429.912) rotate(-9.31)" fill="#0f5211"/>
      <g id="Group_26" data-name="Group 26" transform="translate(53.945 130.847)" opacity="0.5">
        <path id="Path_85" data-name="Path 85" d="M320.279,296.925a40.561,40.561,0,1,0-56.914,43.445l.056.175a13.882,13.882,0,0,0,5.012,2.142V342.5c2.135,1.3,10.452,2.583,19.517,1.071h.2a37.093,37.093,0,0,0,16.8-6.839,1.147,1.147,0,0,1,.07-.322,14.448,14.448,0,0,0,3.353-3.206v-.462a40.519,40.519,0,0,0,11.908-35.815Z" transform="translate(-239.688 -262.931)" fill="url(#linear-gradient-6)"/>
      </g>
      <circle id="Ellipse_21" data-name="Ellipse 21" cx="39.343" cy="39.343" r="39.343" transform="translate(49.331 138.929) rotate(-9.31)" fill="#f5f5f5"/>
      <path id="Path_86" data-name="Path 86" d="M274.827,346.48s-9.1,2.275-3.92,18.726a13.469,13.469,0,0,0,4.865,2.1l2.317-18.467Z" transform="translate(-194.629 -157.144)" fill="#4d8af0"/>
      <path id="Path_87" data-name="Path 87" d="M319.065,339.448s9.374-.763,9.689,16.5a13.468,13.468,0,0,1-3.941,3.5l-8.093-16.759Z" transform="translate(-208.849 -155.033)" fill="#4d8af0"/>
      <circle id="Ellipse_22" data-name="Ellipse 22" cx="17.438" cy="17.438" r="17.438" transform="translate(70.709 143.62) rotate(-9.31)" fill="#333"/>
      <path id="Path_88" data-name="Path 88" d="M306.561,339.49l-30.018,4.9-.833,12.468s-.7,5.831,1.715,7.939,22.486,4.536,35.29-5.376a15.87,15.87,0,0,0-1.239-10.074c-2.52-5.341-.469-.336-.469-.336Z" transform="translate(-196.519 -155.048)" fill="#4d8af0"/>
      <path id="Path_89" data-name="Path 89" d="M307.131,339.4l-30.018,4.9-.833,12.468s-.7,5.831,1.715,7.939,22.486,4.536,35.29-5.376a15.871,15.871,0,0,0-1.239-10.074c-2.52-5.341-.469-.336-.469-.336Z" transform="translate(-196.69 -155.021)" fill="#4d8af0"/>
      <path id="Path_90" data-name="Path 90" d="M306.811,339.45l-30.018,4.9-.833,12.489s-.7,5.831,1.715,7.939,22.486,4.536,35.29-5.376a15.871,15.871,0,0,0-1.239-10.074c-2.52-5.341-.469-.336-.469-.336Z" transform="translate(-196.594 -155.036)" fill="#4d8af0"/>
      <path id="Path_91" data-name="Path 91" d="M.007,0H12.174V11.11a4.711,4.711,0,0,1-4.711,4.711H4.711A4.711,4.711,0,0,1,0,11.11V0Z" transform="translate(87.777 177.858) rotate(-9.31)" opacity="0.1"/>
      <path id="Path_92" data-name="Path 92" d="M.007,0H12.174V11.11a4.711,4.711,0,0,1-4.711,4.711H4.711A4.711,4.711,0,0,1,0,11.11V0Z" transform="translate(87.705 177.413) rotate(-9.31)" fill="#fda57d"/>
      <path id="Path_93" data-name="Path 93" d="M288.238,330.459a17.5,17.5,0,0,0,12.013-1.932l-.245-1.477L288,329.024Z" transform="translate(-200.234 -151.316)" opacity="0.1"/>
      <circle id="Ellipse_23" data-name="Ellipse 23" cx="17.438" cy="17.438" r="17.438" transform="translate(71.327 147.357) rotate(-9.31)" fill="#fda57d"/>
      <path id="Path_94" data-name="Path 94" d="M268.18,295.488l32.825-5.376s-4.977-12.8-17.242-9.913S268.18,295.488,268.18,295.488Z" transform="translate(-194.289 -137.136)" opacity="0.1"/>
      <path id="Path_95" data-name="Path 95" d="M268.07,294.855l32.853-5.383s-4.977-12.8-17.242-9.913S268.07,294.855,268.07,294.855Z" transform="translate(-194.256 -136.944)" fill="#333"/>
      <ellipse id="Ellipse_24" data-name="Ellipse 24" cx="1.629" cy="3.054" rx="1.629" ry="3.054" transform="matrix(0.987, -0.16, 0.16, 0.987, 72.493, 162.039)" fill="#fda57d"/>
      <ellipse id="Ellipse_25" data-name="Ellipse 25" cx="1.624" cy="3.045" rx="1.624" ry="3.045" transform="translate(105.902 155.514) rotate(-9.31)" fill="#fda57d"/>
      <g id="Group_27" data-name="Group 27" transform="translate(197.954 115.844)" opacity="0.5">
        <rect id="Rectangle_35" data-name="Rectangle 35" width="277.332" height="383.187" fill="url(#linear-gradient-7)"/>
      </g>
      <rect id="Rectangle_36" data-name="Rectangle 36" width="270.276" height="374.716" transform="translate(201.482 118.666)" fill="#fff"/>
      <g id="Group_28" data-name="Group 28" transform="translate(237.577 162.931)" opacity="0.5">
        <path id="Path_96" data-name="Path 96" d="M502,350.231a41.471,41.471,0,1,1,64.608,34.422v.182a14.2,14.2,0,0,1-4.7,3l-.056-.182c-1.939,1.666-10.116,4.333-19.51,4.305h-.2a38.115,38.115,0,0,1-18.089-4.123s-.049-.112-.126-.315a14.772,14.772,0,0,1-3.913-2.681l-.063-.469A41.429,41.429,0,0,1,502,350.231Z" transform="translate(-502 -308.761)" fill="url(#linear-gradient-8)"/>
      </g>
      <circle id="Ellipse_26" data-name="Ellipse 26" cx="40.225" cy="40.225" r="40.225" transform="translate(238.816 164.176)" fill="#f5f5f5"/>
      <path id="Path_97" data-name="Path 97" d="M535.487,389.89s-9.584.777-7.05,18.278A13.772,13.772,0,0,0,533,411.073l5.39-18.25Z" transform="translate(-272.225 -170.165)" fill="#be7c5e"/>
      <path id="Path_98" data-name="Path 98" d="M581.884,389.89s9.584.777,7.049,18.278a13.77,13.77,0,0,1-4.564,2.905L579,392.767Z" transform="translate(-287.519 -170.165)" fill="#be7c5e"/>
      <path id="Path_99" data-name="Path 99" d="M538.161,349s-.735,2.149-1.785,4.634c-2.282,5.432.322,26.308,5.782,28.534,6.125,2.5,14.183,4.1,22.549,1.043,7.273-2.653,9.514-26.413,4.375-32.2-.6-.7-1.232-1.351-1.89-2.009Z" transform="translate(-274.486 -157.9)" fill="#333"/>
      <circle id="Ellipse_27" data-name="Ellipse 27" cx="17.83" cy="17.83" r="17.83" transform="translate(261.239 172.03)" fill="#333"/>
      <path id="Path_100" data-name="Path 100" d="M568.01,389.89h-31.1L534,402.33s-1.708,5.761.413,8.3,21.933,8.3,36.494.413a16.227,16.227,0,0,0,.413-10.368c-1.659-5.8-.413-.413-.413-.413Z" transform="translate(-273.827 -170.165)" opacity="0.1"/>
      <path id="Path_101" data-name="Path 101" d="M568.594,389.89H537.477l-2.905,12.44s-1.708,5.761.413,8.3,21.933,8.3,36.494.413a16.227,16.227,0,0,0,.413-10.368c-1.659-5.8-.413-.413-.413-.413Z" transform="translate(-273.998 -170.165)" opacity="0.1"/>
      <path id="Path_102" data-name="Path 102" d="M568.27,389.89h-31.1l-2.905,12.44s-1.708,5.761.413,8.3,21.933,8.3,36.494.413a16.227,16.227,0,0,0,.413-10.368c-1.659-5.8-.413-.413-.413-.413Z" transform="translate(-273.905 -170.165)" fill="#3ad29f"/>
      <path id="Path_103" data-name="Path 103" d="M389.547,299.11h12.44v11.467a4.711,4.711,0,0,1-4.711,4.711h-3.024a4.711,4.711,0,0,1-4.711-4.711V299.11Z" transform="translate(-116.744 -89.711)" opacity="0.1"/>
      <path id="Path_104" data-name="Path 104" d="M389.547,298.45h12.44v11.467a4.711,4.711,0,0,1-4.711,4.711h-3.024a4.711,4.711,0,0,1-4.711-4.711V298.45Z" transform="translate(-116.744 -89.513)" fill="#be7c5e"/>
      <path id="Path_105" data-name="Path 105" d="M552.35,376.346a17.908,17.908,0,0,0,12.44,0V374.82H552.35Z" transform="translate(-279.526 -165.645)" opacity="0.1"/>
      <circle id="Ellipse_28" data-name="Ellipse 28" cx="17.83" cy="17.83" r="17.83" transform="translate(261.239 175.902)" fill="#be7c5e"/>
      <path id="Path_106" data-name="Path 106" d="M536.91,337.565h34.008s-2.905-13.735-15.758-12.853S536.91,337.565,536.91,337.565Z" transform="translate(-274.894 -150.603)" fill="#333"/>
      <ellipse id="Ellipse_29" data-name="Ellipse 29" cx="1.659" cy="3.108" rx="1.659" ry="3.108" transform="translate(259.95 189.868)" fill="#be7c5e"/>
      <ellipse id="Ellipse_30" data-name="Ellipse 30" cx="1.659" cy="3.108" rx="1.659" ry="3.108" transform="translate(294.785 189.868)" fill="#be7c5e"/>
      <path id="Path_107" data-name="Path 107" d="M536.91,338.215h34.008s-2.905-13.735-15.758-12.853S536.91,338.215,536.91,338.215Z" transform="translate(-274.894 -150.798)" opacity="0.1"/>
      <rect id="Rectangle_37" data-name="Rectangle 37" width="195.069" height="11.824" transform="translate(237.521 281.147)" fill="#e0e0e0"/>
      <rect id="Rectangle_38" data-name="Rectangle 38" width="195.069" height="11.824" transform="translate(237.521 310.704)" fill="#e0e0e0"/>
      <rect id="Rectangle_39" data-name="Rectangle 39" width="100.492" height="11.824" transform="translate(332.105 186.571)" fill="#e0e0e0"/>
      <rect id="Rectangle_40" data-name="Rectangle 40" width="82.76" height="11.824" transform="translate(340.967 216.127)" fill="#0f5211"/>
      <rect id="Rectangle_41" data-name="Rectangle 41" width="171.429" height="11.824" transform="translate(237.521 340.26)" fill="#e0e0e0"/>
      <rect id="Rectangle_42" data-name="Rectangle 42" width="147.781" height="11.824" transform="translate(237.521 369.816)" fill="#e0e0e0"/>
      <rect id="Rectangle_43" data-name="Rectangle 43" width="130.048" height="11.824" transform="translate(237.521 399.379)" fill="#e0e0e0"/>
      <rect id="Rectangle_44" data-name="Rectangle 44" width="165.513" height="11.824" transform="translate(237.521 428.935)" fill="#e0e0e0"/>
      <rect id="Rectangle_45" data-name="Rectangle 45" width="65.021" height="11.824" transform="translate(237.521 458.491)" fill="#0f5211"/>
      <g id="Group_29" data-name="Group 29" transform="translate(397.503 405.456)" opacity="0.5">
        <circle id="Ellipse_31" data-name="Ellipse 31" cx="59.077" cy="59.077" r="59.077" fill="url(#linear-gradient-9)"/>
      </g>
      <circle id="Ellipse_32" data-name="Ellipse 32" cx="55.598" cy="55.598" r="55.598" transform="translate(400.983 408.935)" fill="#31b931"/>
      <path id="Path_108" data-name="Path 108" d="M613.878,642.54l20.848,19.111L664.26,618.22l10.431,8.688-39.966,52.119L605.19,646.019Z" transform="translate(-181.428 -185.427)" fill="#fff"/>
    </g>
  </g>
</svg>
