<svg xmlns="http://www.w3.org/2000/svg" width="638.975" height="778.645" viewBox="0 0 638.975 778.645">
  <g id="Group_1" data-name="Group 1" transform="translate(0 0)">
    <path id="Path_1" data-name="Path 1" d="M580.679,660.677v-2c3.977,0,8.013-.083,12-.242l.08,2C588.745,660.594,584.682,660.676,580.679,660.677Zm-12.075-.231c-4-.156-8.055-.4-12.057-.711l.157-1.994c3.976.314,8.006.552,11.978.707Zm36.21-.737-.159-1.994c3.969-.317,7.985-.721,11.938-1.2l.24,1.986c-3.979.481-8.022.886-12.019,1.206Zm-60.287-1.166c-3.988-.478-8.012-1.041-11.962-1.675l.317-1.975c3.923.63,7.921,1.189,11.882,1.663Zm84.265-1.729-.319-1.975c3.922-.634,7.894-1.359,11.8-2.154l.4,1.959c-3.935.8-7.934,1.531-11.882,2.17Zm-108.112-2.1c-3.936-.8-7.9-1.685-11.789-2.636l.476-1.943c3.861.946,7.8,1.827,11.709,2.618Zm131.781-2.717-.479-1.941c3.873-.953,7.772-2,11.59-3.1l.557,1.922c-3.845,1.113-7.771,2.164-11.668,3.123Zm-155.242-3.03c-3.856-1.113-7.738-2.318-11.536-3.582l.632-1.9c3.773,1.256,7.628,2.453,11.459,3.559Zm178.441-3.689-.634-1.9c3.775-1.262,7.577-2.618,11.3-4.033l.711,1.869c-3.749,1.425-7.577,2.791-11.378,4.061Zm-201.39-3.952c-3.752-1.422-7.531-2.941-11.233-4.519l.784-1.84c3.677,1.566,7.432,3.076,11.159,4.487Zm223.94-4.612-.785-1.84c3.656-1.562,7.327-3.217,10.91-4.921l.859,1.807c-3.607,1.715-7.3,3.382-10.984,4.954ZM452,631.835c-3.633-1.725-7.275-3.545-10.825-5.411l.931-1.77c3.526,1.853,7.143,3.661,10.751,5.374Zm267.977-5.475-.932-1.77c3.522-1.854,7.051-3.8,10.486-5.789l1,1.73c-3.459,2-7.011,3.962-10.557,5.828ZM430.58,620.581c-3.485-2.015-6.966-4.122-10.347-6.264l1.07-1.689c3.357,2.127,6.815,4.221,10.277,6.223Zm310.269-6.3-1.07-1.689c3.353-2.124,6.715-4.35,9.993-6.616l1.137,1.645c-3.3,2.282-6.685,4.523-10.06,6.661Zm-330.7-6.638c-3.307-2.285-6.606-4.664-9.805-7.071l1.2-1.6c3.178,2.391,6.455,4.754,9.74,7.024ZM760.7,600.561l-1.2-1.6c3.171-2.385,6.346-4.874,9.437-7.4l1.266,1.549c-3.111,2.542-6.308,5.048-9.5,7.448Zm-369.864-7.446c-3.105-2.537-6.2-5.172-9.2-7.832l1.326-1.5c2.982,2.642,6.058,5.26,9.142,7.779Zm388.558-7.827-1.326-1.5c2.979-2.641,5.946-5.378,8.817-8.135l1.385,1.443c-2.89,2.774-5.876,5.529-8.876,8.188Zm-406.641-8.2c-2.885-2.771-5.759-5.645-8.543-8.539l1.441-1.387c2.766,2.876,5.621,5.73,8.487,8.482Zm424.061-8.531-1.441-1.387c2.757-2.867,5.5-5.833,8.143-8.816l1.5,1.328c-2.664,3-5.422,5.988-8.2,8.875Zm-440.8-8.879c-2.667-3.006-5.3-6.1-7.831-9.192l1.549-1.266c2.512,3.073,5.129,6.146,7.778,9.13Zm456.832-9.194-1.549-1.266c2.527-3.09,5.021-6.268,7.414-9.444l1.6,1.2c-2.408,3.2-4.92,6.4-7.463,9.507Zm-472.116-9.492c-2.41-3.2-4.788-6.491-7.066-9.783l1.645-1.139c2.263,3.271,4.625,6.54,7.019,9.719Zm486.656-9.817-1.645-1.137c2.271-3.285,4.5-6.654,6.634-10.014l1.689,1.07C831.919,524.48,829.672,527.871,827.385,531.178ZM327,521.155c-2.143-3.379-4.248-6.849-6.255-10.313l1.73-1c1.994,3.441,4.085,6.888,6.213,10.244Zm513.338-10.4-1.73-1c2-3.46,3.956-7,5.809-10.521l1.77.932c-1.864,3.544-3.832,7.107-5.848,10.591Zm-525.426-10.47c-1.863-3.538-3.681-7.164-5.4-10.777l1.806-.859c1.709,3.589,3.515,7.19,5.365,10.705ZM851.6,489.343l-1.807-.859c1.712-3.6,3.375-7.289,4.941-10.961l1.84.785C855,482,853.322,485.717,851.6,489.343ZM304.546,478.528c-1.575-3.684-3.093-7.441-4.511-11.17l1.869-.711c1.409,3.7,2.917,7.436,4.481,11.094ZM861.1,467.075l-1.87-.709c1.418-3.741,2.777-7.555,4.038-11.333l1.9.633C863.895,459.471,862.527,463.309,861.1,467.075Zm-565.13-11.093c-1.273-3.8-2.485-7.682-3.6-11.53l1.921-.557c1.109,3.822,2.313,7.676,3.578,11.452ZM868.753,444.13l-1.922-.555c1.1-3.816,2.146-7.716,3.1-11.592l1.941.477C870.912,436.363,869.863,440.289,868.753,444.13ZM289.236,432.785c-.961-3.895-1.854-7.858-2.656-11.783l1.96-.4c.8,3.9,1.683,7.837,2.637,11.705Zm585.277-12.11-1.961-.4c.791-3.9,1.514-7.867,2.148-11.8l1.975.318c-.639,3.963-1.366,7.961-2.162,11.884ZM284.4,409.12c-.641-3.948-1.211-7.972-1.695-11.959l1.985-.24c.48,3.961,1.047,7.957,1.684,11.879Zm593.953-12.293-1.986-.238c.476-3.959.877-7.976,1.191-11.938l1.994.158c-.317,3.989-.721,8.033-1.2,12.018ZM281.5,385.145c-.323-3.995-.569-8.051-.731-12.058l2-.081c.162,3.979.406,8.009.727,11.978Zm598.778-12.391-2-.079c.156-3.985.236-8.021.236-12v-.663h2v.658C880.513,364.679,880.433,368.741,880.275,372.754ZM282.512,361.01h-2v-.336c0-3.9.076-7.853.226-11.739l2,.077c-.148,3.861-.224,7.786-.224,11.666Zm595.736-12.988c-.165-3.971-.413-8-.739-11.977l1.994-.163c.327,4,.577,8.059.743,12.057ZM283.437,337.034l-1.994-.156c.314-4,.714-8.049,1.187-12.021l1.986.236C284.146,329.039,283.75,333.056,283.437,337.034Zm592.855-12.925c-.482-3.944-1.053-7.94-1.7-11.877l1.975-.323c.647,3.963,1.223,7.986,1.707,11.958Zm-590.02-10.9-1.975-.316c.634-3.96,1.357-7.959,2.15-11.886l1.96.4c-.788,3.9-1.506,7.873-2.136,11.807Zm586.147-12.779c-.8-3.908-1.694-7.845-2.65-11.7l1.941-.481c.963,3.883,1.86,7.847,2.668,11.781Zm-581.4-10.739-1.943-.475c.951-3.893,2-7.82,3.105-11.675l1.922.553C293,281.926,291.964,285.827,291.019,289.693Zm575.628-12.548c-1.113-3.82-2.32-7.672-3.59-11.449l1.9-.637c1.277,3.8,2.493,7.68,3.613,11.526ZM297.655,266.637l-1.9-.631c1.266-3.808,2.629-7.648,4.052-11.414l1.871.707C300.266,259.039,298.912,262.854,297.655,266.637ZM859,254.4c-1.421-3.72-2.933-7.451-4.493-11.09l1.838-.788c1.571,3.663,3.094,7.419,4.524,11.164ZM306.162,244.137l-1.841-.783c1.572-3.695,3.242-7.41,4.963-11.04l1.807.856C309.382,236.777,307.723,240.467,306.162,244.137Zm543.409-11.728c-1.712-3.585-3.521-7.185-5.376-10.7l1.768-.934c1.869,3.538,3.69,7.162,5.413,10.771Zm-533.111-9.995-1.771-.929c1.864-3.553,3.828-7.119,5.836-10.6l1.732,1C320.263,215.344,318.312,218.886,316.461,222.415Zm521.928-11.181c-2-3.443-4.094-6.887-6.225-10.238l1.688-1.073c2.146,3.374,4.253,6.841,6.267,10.307Zm-509.915-9.626-1.69-1.069c2.146-3.392,4.389-6.786,6.668-10.087l1.646,1.136C332.834,194.867,330.606,198.238,328.474,201.608ZM825.53,191.013c-2.269-3.269-4.634-6.537-7.029-9.71l1.6-1.205c2.412,3.2,4.793,6.484,7.076,9.776Zm-483.414-9.17-1.6-1.2c2.41-3.208,4.917-6.409,7.452-9.516l1.55,1.265c-2.518,3.085-5.009,6.266-7.4,9.452Zm468.969-9.964c-2.522-3.078-5.144-6.146-7.788-9.121l1.494-1.329c2.663,2.995,5.3,6.084,7.841,9.183ZM357.3,163.244l-1.5-1.325c2.655-3,5.41-5.989,8.187-8.885l1.443,1.385c-2.759,2.876-5.5,5.846-8.133,8.825Zm437.855-9.292c-2.768-2.872-5.626-5.722-8.5-8.473l1.384-1.444c2.89,2.77,5.768,5.639,8.553,8.53Zm-421.244-8.025-1.387-1.441c2.886-2.777,5.87-5.535,8.868-8.2l1.328,1.5C379.737,140.429,376.773,143.169,373.906,145.928Zm403.917-8.577c-2.988-2.642-6.067-5.256-9.15-7.77l1.264-1.55c3.1,2.53,6.2,5.162,9.211,7.822ZM391.841,130l-1.268-1.547c3.1-2.542,6.3-5.051,9.491-7.459l1.2,1.6C398.095,124.983,394.923,127.476,391.841,130Zm367.374-7.817c-3.19-2.395-6.471-4.754-9.747-7.014l1.135-1.646c3.3,2.275,6.6,4.65,9.813,7.061Zm-348.231-6.618-1.14-1.644c3.3-2.285,6.679-4.529,10.053-6.672l1.072,1.688c-3.351,2.128-6.711,4.357-9.986,6.627Zm328.46-7.015c-3.372-2.13-6.832-4.219-10.285-6.21l1-1.732c3.475,2,6.958,4.107,10.354,6.251ZM431.211,102.72l-1-1.73c3.458-2.005,7.008-3.97,10.55-5.839l.934,1.769C438.172,98.776,434.646,100.727,431.211,102.72ZM718.63,96.549c-3.532-1.851-7.151-3.655-10.758-5.362l.855-1.808c3.631,1.719,7.275,3.535,10.83,5.4Zm-266.238-5-.861-1.806c3.606-1.719,7.3-3.39,10.979-4.966l.787,1.838c-3.654,1.565-7.324,3.225-10.906,4.934ZM696.9,86.263c-3.676-1.561-7.432-3.066-11.164-4.476l.707-1.871c3.757,1.418,7.539,2.935,11.238,4.506ZM474.391,82.128l-.712-1.869c3.742-1.427,7.568-2.8,11.372-4.073l.636,1.9C481.908,79.349,478.108,80.711,474.391,82.128ZM674.4,77.768c-3.779-1.253-7.636-2.446-11.463-3.545l.553-1.922c3.853,1.106,7.734,2.307,11.539,3.569ZM497.138,74.5l-.559-1.92c3.846-1.119,7.771-2.175,11.665-3.138l.48,1.941C504.857,72.338,500.958,73.387,497.138,74.5Zm154.2-3.352c-3.861-.942-7.8-1.818-11.712-2.605l.395-1.961c3.937.792,7.9,1.675,11.792,2.623Zm-130.91-2.408-.4-1.959c3.921-.8,7.918-1.537,11.88-2.183l.322,1.974C528.292,67.211,524.322,67.941,520.427,68.738Zm107.39-2.326c-3.933-.627-7.932-1.183-11.885-1.65l.235-1.986c3.979.471,8,1.03,11.964,1.662Zm-83.711-1.533-.242-1.985c3.979-.484,8.021-.9,12.017-1.219l.162,1.993C552.074,63.99,548.058,64.4,544.107,64.879Zm59.886-1.29c-3.965-.309-8-.542-11.979-.693l.076-2c4.01.152,8.066.387,12.058.7Zm-35.972-.655-.082-2c4-.165,8.062-.252,12.076-.259l0,2C576.03,62.684,571.993,62.771,568.02,62.934Z" transform="translate(-280.512 -60.678)" fill="#3f3d56"/>
    <path id="Path_2" data-name="Path 2" d="M919.488,265.719v-54.44a125.247,125.247,0,0,1-80.859-60.189h0a23.789,23.789,0,0,1-14.22,4.68H781.179A178.549,178.549,0,0,0,919.488,265.719Z" transform="translate(-280.512 -60.678)" fill="#3f3d56"/>
    <path id="Path_3" data-name="Path 3" d="M919.488,208.159v-52.3a29.121,29.121,0,0,0-29.13-29.13h-41.97v5.05a23.916,23.916,0,0,1-7.4,17.329,122.3,122.3,0,0,0,78.5,59.049Z" transform="translate(-280.512 -60.678)" fill="#3f3d56"/>
    <path id="Path_4" data-name="Path 4" d="M717.6,155.771H690.568a23.987,23.987,0,0,1-23.98-23.99v-5.05h-39.38a29.128,29.128,0,0,0-29.13,29.132v648.2a29.079,29.079,0,0,0,29.13,29.11h263.15a28.361,28.361,0,0,0,3.59-.22,29.146,29.146,0,0,0,25.54-28.89V326.889C823.779,315.8,744.029,247.509,717.6,155.771Z" transform="translate(-280.512 -60.678)" fill="#3f3d56"/>
    <path id="Path_5" data-name="Path 5" d="M777.9,155.771h-57.14c26.3,90.039,104.68,157.028,198.729,168.068v-55.02A181.668,181.668,0,0,1,777.9,155.771Z" transform="translate(-280.512 -60.678)" fill="#3f3d56"/>
    <path id="Path_6" data-name="Path 6" d="M693.367,823.15c.725-.72,17.928-18.142,32.511-59.48,13.378-37.926,26.878-104.061,15.213-203.762-22.1-188.876,91.228-309.247,92.377-310.441l-3.355-3.221c-.291.3-29.429,30.933-55.354,84.706a416.28,416.28,0,0,0-38.288,229.5c22.062,188.553-45.7,258.718-46.385,259.406Z" transform="translate(-280.512 -60.678)" opacity="0.1"/>
    <circle id="Ellipse_1" data-name="Ellipse 1" cx="30.222" cy="30.222" r="30.222" transform="translate(557.53 125.18)" opacity="0.1"/>
    <circle id="Ellipse_2" data-name="Ellipse 2" cx="30.222" cy="30.222" r="30.222" transform="translate(438.466 210.977)" opacity="0.1"/>
    <circle id="Ellipse_3" data-name="Ellipse 3" cx="30.222" cy="30.222" r="30.222" transform="translate(484.056 298.687)" opacity="0.1"/>
    <circle id="Ellipse_4" data-name="Ellipse 4" cx="30.222" cy="30.222" r="30.222" transform="translate(392.381 340.917)" opacity="0.1"/>
    <circle id="Ellipse_5" data-name="Ellipse 5" cx="30.222" cy="30.222" r="30.222" transform="translate(468.592 460.034)" opacity="0.1"/>
    <path id="Path_7" data-name="Path 7" d="M675.366,819.9s47.005-65.1-27.84-140.81Z" transform="translate(-280.512 -60.678)" opacity="0.1"/>
    <path id="Path_8" data-name="Path 8" d="M711.794,827.405s32.127-73.591,135.385-47.681Z" transform="translate(-280.512 -60.678)" opacity="0.1"/>
    <rect id="Rectangle_1" data-name="Rectangle 1" width="254" height="50" transform="translate(351.73 505.935)" fill="#1d771d"/>
    <path id="Path_9" data-name="Path 9" d="M709.82,460.64a76.314,76.314,0,1,1,35.408,28.43,24.686,24.686,0,1,1-35.408-28.43Z" transform="translate(-280.512 -60.678)" fill="#f2f2f2"/>
    <path id="Path_10" data-name="Path 10" d="M789.316,390.749c-1.817-1.049-8.7,7.363-16.3,19.607-7.6-12.243-14.483-20.656-16.3-19.607-2.018,1.165,2.948,13.585,11.2,28.232-8.253,14.648-13.219,27.067-11.2,28.232,1.817,1.049,8.7-7.363,16.3-19.607,7.6,12.243,14.483,20.656,16.3,19.607,2.018-1.165-2.948-13.585-11.2-28.232C786.368,404.334,791.334,391.914,789.316,390.749Z" transform="translate(-280.512 -60.678)" fill="#1d771d"/>
    <path id="Path_11" data-name="Path 11" d="M423.666,520.331s-8.135,34.862-1.162,34.862,20.918-16.269,20.918-16.269v-9.3Z" transform="translate(-280.512 -60.678)" fill="#a0616a"/>
    <path id="Path_12" data-name="Path 12" d="M160,428.858,139.086,461.4h15.107Z" fill="#d0cde1"/>
    <rect id="Rectangle_2" data-name="Rectangle 2" width="27.89" height="23.242" transform="translate(147.221 712.406)" fill="#a0616a"/>
    <path id="Path_13" data-name="Path 13" d="M236.7,708.92l5.811,26.728,29.052-6.973-6.973-23.241Z" fill="#a0616a"/>
    <path id="Path_14" data-name="Path 14" d="M430.058,529.046s-9.3,4.648-10.459,25.566,3.486,75.535,3.486,75.535-4.648,24.4,0,46.483-4.648,102.263,1.162,102.263,36.025,3.486,37.187,0,2.324-55.78,2.324-55.78,9.3-26.728,0-43c0,0,20.918,17.431,20.918,22.08s22.08,76.7,32.538,77.86,39.511-1.162,33.7-11.621-19.755-58.1-19.755-58.1-10.459-34.863-29.052-49.97l9.3-74.373s19.755-49.97,8.135-56.942S430.058,529.046,430.058,529.046Z" transform="translate(-280.512 -60.678)" fill="#2f2e41"/>
    <circle id="Ellipse_6" data-name="Ellipse 6" cx="30.214" cy="30.214" r="30.214" transform="translate(154.193 218.521)" fill="#a0616a"/>
    <path id="Path_15" data-name="Path 15" d="M449.813,328.006s11.621,38.349,8.135,43,37.187-25.566,37.187-25.566-15.107-10.459-9.3-25.566Z" transform="translate(-280.512 -60.678)" fill="#a0616a"/>
    <path id="Path_16" data-name="Path 16" d="M498.62,341.951S484.675,346.6,477.7,354.734s-23.242,9.3-23.242,9.3-14.382,8.1-19.755,22.08c-5.727,14.9-2.4,35.877,0,40.673,4.648,9.3,4.648,32.538,4.648,32.538l-5.81,53.456s-20.918,19.755-4.648,22.08,45.321-1.162,62.753,0,37.187,3.486,31.376-8.135-12.783-19.755-5.81-43c5.456-18.187,5.22-86.187,4.859-114.9a23.118,23.118,0,0,0-11.227-19.537Z" transform="translate(-280.512 -60.678)" fill="#d0cde1"/>
    <path id="Path_17" data-name="Path 17" d="M453.3,519.75s-5.287,11.641-5.81,18.593c-4.067,54.037,25.566,0,25.566,0v-9.3Z" transform="translate(-280.512 -60.678)" fill="#a0616a"/>
    <path id="Path_18" data-name="Path 18" d="M534.645,787.029s-17.431-12.783-17.431-5.81-19.755,34.862-19.755,34.862-32.538,23.242-5.81,23.242S530,834.674,530,834.674l27.89-18.593s6.972-8.135,4.648-17.431-10.459-22.08-10.459-22.08S542.78,789.353,534.645,787.029Z" transform="translate(-280.512 -60.678)" fill="#2f2e41"/>
    <path id="Path_19" data-name="Path 19" d="M432.382,790.515s-2.324-11.621-10.459-5.81-30.214,23.242-30.214,23.242-40.673,9.3-15.107,20.917,83.67-4.648,83.67-4.648,2.324-37.187,0-36.025S433.544,792.839,432.382,790.515Z" transform="translate(-280.512 -60.678)" fill="#2f2e41"/>
    <path id="Path_20" data-name="Path 20" d="M201.258,317.879l3.486,70.887-33.781,68.419-5.73-2.18L200.1,391.09Z" opacity="0.1"/>
    <path id="Path_21" data-name="Path 21" d="M509.079,357.058l8.716-1.743s26.147,19.174,18.012,57.523-44.159,96.453-44.159,96.453-8.135,10.459-10.459,12.783-6.973,0-4.648,3.486-3.486,5.81-3.486,5.81-25.566,0-23.242-9.3,41.835-75.535,41.835-75.535l-5.81-61.59S481.189,354.734,509.079,357.058Z" transform="translate(-280.512 -60.678)" fill="#d0cde1"/>
    <path id="Path_22" data-name="Path 22" d="M239.607,403.873v-8.135L200.1,460.815Z" opacity="0.1"/>
    <path id="Path_23" data-name="Path 23" d="M443.481,281.423l-4.995-2s10.444-11.5,24.975-10.5l-4.087-4.5s9.99-4,19.072,6.5c4.774,5.519,10.3,12.006,13.741,19.313h5.349l-2.233,4.916,7.814,4.916-8.02-.883a27.2,27.2,0,0,1-.759,12.732l.215,3.885s-9.3-14.384-9.3-16.384v5s-4.995-4.5-4.995-7.5l-2.724,3.5-1.362-5.5-16.8,5.5,2.724-4.5-10.444,1.5,4.087-5.5s-11.806,6.5-12.26,12-6.357,12.5-6.357,12.5l-2.724-5S430.312,288.922,443.481,281.423Z" transform="translate(-280.512 -60.678)" fill="#2f2e41"/>
  </g>
</svg>
